<svg width="1920" height="1080" viewBox="0 0 1920 1080" fill="none" xmlns="http://www.w3.org/2000/svg">
<g clip-path="url(#clip0)">
<rect width="1920" height="1080" fill="white"/>
<rect width="1920" height="1080" fill="url(#paint0_radial)"/>
<g opacity="0.1">
<path d="M541.929 417.712L542.019 417.684C542.123 417.65 542.331 417.915 542.64 418.477L542.746 418.814L542.941 419.742L543.53 419.729C543.508 419.554 543.584 419.275 543.759 418.89C543.661 418.789 543.603 418.708 543.584 418.648L543.735 418.501C544.47 418.583 544.886 418.781 544.986 419.095C545.01 419.17 545.481 419.541 546.4 420.207L546.828 420.937L546.881 421.415C546.899 421.475 546.939 421.496 546.999 421.477C547.487 423.647 547.668 424.95 547.542 425.386C547.702 426.308 547.759 426.776 547.714 426.791C547.812 426.892 547.87 426.972 547.889 427.032C548.281 428.689 548.431 429.581 548.34 429.709C548.359 429.769 548.415 429.842 548.508 429.928C548.587 430.282 548.582 430.581 548.494 430.823L548.726 431.244C548.816 431.529 548.801 431.69 548.681 431.728L548.828 431.88L548.856 431.97L548.577 432.651C548.757 432.594 548.866 432.626 548.904 432.746C548.799 432.779 548.763 432.98 548.798 433.348L549.067 433.263L549.152 433.533C549.19 433.653 549.119 433.741 548.94 433.798L549.233 434.101C549.202 434.21 549.207 434.332 549.25 434.467C549.348 434.568 549.406 434.648 549.425 434.708C549.335 434.737 549.274 434.855 549.241 435.063L549.449 435.096C549.607 435.755 549.649 436.096 549.574 436.12L549.721 436.272C549.613 436.504 549.565 436.741 549.576 436.985L549.486 437.014L549.571 437.284C549.736 437.231 549.837 437.265 549.875 437.385C549.913 437.505 549.85 437.591 549.685 437.643C549.921 437.816 550.07 438 550.131 438.195C550.188 438.375 550.159 438.673 550.043 439.088L550.19 439.24L550.213 439.628L550.353 439.757L550.372 440.443C550.391 440.503 550.43 440.524 550.49 440.505L550.678 441.41L550.82 441.86C550.839 441.92 550.818 441.96 550.758 441.978C550.777 442.038 550.817 442.059 550.877 442.04C551.44 443.824 551.631 445.157 551.448 446.039L551.68 446.46L551.844 446.978C551.863 447.038 551.842 447.077 551.782 447.096L551.929 447.247C551.948 447.307 551.927 447.347 551.867 447.366C552.058 447.553 552.192 447.766 552.267 448.006C552.469 449.113 552.405 449.719 552.075 449.823C552.045 449.832 552.014 449.941 551.981 450.149C552.5 450.958 552.812 451.346 552.917 451.313L553.059 451.763C553.056 451.961 552.912 452.106 552.627 452.196C552.268 452.309 551.733 451.242 551.022 448.993C550.98 448.858 550.734 448.68 550.285 448.459C549.905 447.673 549.684 447.289 549.625 447.308L549.572 446.83L549.43 446.38C549.388 446.245 549.32 446.135 549.227 446.049L549.267 445.863C549.169 445.762 549.111 445.681 549.092 445.621L549.181 445.593C549.088 445.507 549.021 445.396 548.978 445.262L548.827 445.408L548.973 445.56C548.808 446.288 548.749 446.727 548.796 446.877L549.187 448.114C549.23 448.249 549.298 448.359 549.391 448.445C549.388 448.644 549.356 448.753 549.296 448.772C549.315 448.832 549.371 448.905 549.464 448.991L549.63 449.829L549.883 450.317C550.72 453.433 551.033 455.024 550.823 455.091L550.733 455.119C550.434 455.214 549.957 454.227 549.303 452.158C549.169 451.524 548.938 450.69 548.612 449.656C548.159 449.057 547.861 448.533 547.719 448.083C547.526 447.369 547.505 446.988 547.655 446.941L547.373 446.362L547.288 446.092C547.269 446.032 547.289 445.993 547.349 445.974C547.085 445.711 546.863 445.427 546.684 445.121C546.668 444.862 546.632 444.643 546.575 444.463C546.514 444.268 546.304 443.815 545.948 443.103C545.497 441.052 545.304 439.918 545.367 439.7C545.348 439.64 545.308 439.62 545.249 439.639C545.16 438.941 545.042 438.36 544.895 437.895L544.806 437.924C544.536 438.009 544.252 438.231 543.953 438.589L543.863 438.617C543.803 438.636 543.764 438.616 543.745 438.556C543.585 438.623 543.47 438.783 543.402 439.035L540.92 440.413L541.067 440.564C541.046 440.967 541.013 441.175 540.968 441.189L541.108 441.318L541.555 442.735C542.342 445.223 542.563 446.522 542.218 446.631L541.835 446.356L541.529 445.389C541.139 444.573 540.93 444.12 540.902 444.03L540.092 441.466C539.816 440.96 539.611 440.728 539.476 440.77C539.514 440.89 539.473 440.969 539.353 441.007C539.218 441.05 539.097 441.055 538.988 441.024C538.658 441.128 538.541 441.486 538.636 442.099C538.524 442.267 538.423 442.364 538.333 442.393L538.361 442.483L538.541 442.426L538.598 442.606L538.565 442.814C538.655 442.786 538.773 442.847 538.92 442.999L538.977 443.179L538.797 443.235L538.825 443.325L538.965 443.454C538.875 443.483 538.823 443.631 538.809 443.899C538.907 444 538.965 444.081 538.984 444.141C538.883 444.239 538.803 444.297 538.743 444.316L538.946 444.647C538.939 444.831 538.912 444.93 538.867 444.944L538.992 445.103L538.981 445.304L539.066 445.574L538.915 445.721C539.008 445.807 539.076 445.917 539.118 446.052L539.309 445.794L539.366 445.974L539.164 446.508C539.345 446.665 539.462 446.826 539.514 446.991L539.542 447.081C539.604 447.276 539.578 447.506 539.464 447.773L539.729 447.986L539.758 448.076L539.564 449.028C539.653 449.099 539.718 449.202 539.761 449.336C539.686 449.36 539.613 449.548 539.543 449.9L539.629 450.17C539.796 450.282 539.891 450.375 539.915 450.45C540.102 451.512 540.226 452.322 540.287 452.88L540.434 453.031L540.711 453.908L540.434 455.455L540.164 455.54C540.104 455.559 540.065 455.539 540.046 455.479C539.956 455.507 539.823 455.714 539.648 456.099L539.221 456.234C538.795 456.138 538.568 456.045 538.54 455.955C538.11 453.865 537.869 452.58 537.817 452.102C537.719 452.001 537.661 451.921 537.642 451.861C537.421 451.997 537.24 452.153 537.098 452.33L536.918 452.386L536.614 452.285C536.652 452.405 536.611 452.483 536.491 452.521L536.221 452.607L536.188 452.815C536.207 452.875 536.247 452.895 536.307 452.876C536.678 454.573 536.759 455.454 536.549 455.52C536.264 455.61 535.935 455.063 535.561 453.879L535.283 453.002C535.07 452.327 534.809 452.022 534.5 452.087C534.481 452.027 534.483 451.928 534.505 451.789L534.216 451.188L533.964 449.14L533.818 448.989C533.844 448.865 533.836 448.735 533.794 448.6L533.765 448.51L533.586 448.567C533.587 447.528 532.721 442.938 530.989 434.796C530.349 432.772 530.132 430.961 530.335 429.364C530.179 426.627 530.082 425.198 530.044 425.078C530.133 424.786 530.346 424.521 530.682 424.283C530.78 424.384 530.839 424.464 530.858 424.524L531.105 424.446C531.285 424.389 531.701 424.456 532.354 424.645C532.264 424.36 532.222 424.044 532.227 423.696L532.041 423.656C531.975 423.446 532.235 423.042 532.821 422.445L532.792 422.355C532.732 422.374 532.693 422.353 532.674 422.293L532.825 422.147C532.844 422.207 532.884 422.227 532.943 422.208C532.872 421.983 532.982 421.627 533.273 421.139L533.363 421.111L533.588 421.51L533.739 421.363C533.792 421.478 533.871 421.519 533.976 421.486C533.953 421.362 533.994 421.283 534.099 421.25C534.461 421.3 534.977 421.5 535.648 421.848C535.834 422.02 535.967 422.234 536.048 422.489C536.237 423.088 536.272 423.407 536.152 423.445L536.377 423.844C536.537 425.393 536.883 427.427 537.415 429.946C537.554 431.584 537.575 432.773 537.479 433.512L537.687 433.545L538.041 435.288L538.917 435.011C539.082 434.959 540.097 434.573 541.962 433.851L542.681 433.624L543.226 433.551C543.765 433.38 543.943 433.003 543.758 432.418L543.252 429.957L543.105 429.805L543.053 429.327C543.01 429.192 542.942 429.082 542.849 428.996C542.81 428.662 542.757 428.39 542.691 428.18L542.463 427.461C542.425 427.341 542.42 427.219 542.447 427.095C542.353 427.009 542.286 426.898 542.243 426.763C541.703 425.054 541.282 422.887 540.98 420.262C541.264 420.172 541.289 419.546 541.054 418.384C541.292 418.045 541.584 417.821 541.929 417.712Z" fill="#F93838"/>
<path d="M549.226 414.367C550.316 414.583 551.044 415.269 551.408 416.423L551.607 417.053L551.877 416.967C551.754 416.578 551.731 415.983 551.808 415.184L552.038 415.21C552.15 415.043 552.251 414.945 552.341 414.916C552.952 414.921 553.484 415.223 553.937 415.822C554.297 415.708 554.782 415.522 555.392 415.263L556.522 415.005C556.824 414.712 557.043 414.544 557.178 414.501C558.699 414.152 559.767 413.881 560.381 413.687C560.92 413.516 561.277 413.263 561.451 412.928C561.811 412.814 562.252 413.351 562.776 414.538C562.824 414.951 562.824 415.289 562.775 415.552C562.835 415.533 562.877 415.561 562.9 415.636C562.814 415.729 562.466 415.905 561.856 416.164L562.003 416.315C561.981 416.454 561.979 416.554 561.998 416.613C562.123 416.591 562.201 416.632 562.235 416.737C562.217 416.89 562.218 416.997 562.237 417.057L563.744 416.977L563.801 417.157C563.322 417.308 563.023 417.642 562.906 418.157C562.576 418.261 562.309 418.378 562.103 418.509C561.964 418.487 561.857 418.488 561.782 418.512C561.82 418.632 561.689 418.739 561.39 418.834L561.418 418.924L562.015 418.859L562.072 419.038L561.69 419.159C561.331 419.273 560.595 419.604 559.483 420.153L559.568 420.423L558.355 420.807L558.675 421.819C558.968 422.748 558.965 423.26 558.666 423.355C558.486 423.412 558.223 423.025 557.879 422.194L557.905 421.963C557.59 421.386 557.403 421.107 557.344 421.126C556.13 421.51 555.575 421.891 555.678 422.271C555.549 422.905 555.534 423.38 555.634 423.694C556.066 424.646 556.321 425.242 556.396 425.482C556.404 425.924 556.432 426.22 556.479 426.37L556.633 426.544C556.671 427.34 556.737 427.995 556.834 428.509C556.932 428.61 556.99 428.69 557.009 428.75L556.976 428.959C557.15 429.25 557.297 429.376 557.417 429.339L559.53 428.671C559.745 428.257 560.092 427.974 560.572 427.822C562.999 427.056 564.423 426.844 564.845 427.189L564.751 427.516C565.051 427.421 565.377 427.829 565.731 428.74C566.323 428.684 566.649 428.647 566.709 428.628L566.737 428.718L566.704 428.927C566.829 428.904 566.908 428.945 566.941 429.05C566.677 429.413 566.47 429.619 566.32 429.666L566.726 429.934L566.754 430.024C566.5 430.104 566.422 430.302 566.522 430.617C566.331 430.743 566.22 430.811 566.191 430.82L566.162 430.73C566.102 430.749 566.082 430.789 566.101 430.849L565.6 430.908C565.54 430.927 565.292 431.104 564.854 431.44C564.715 431.418 564.616 431.417 564.556 431.436L564.523 431.644C564.808 431.554 565.044 431.545 565.231 431.618L565.681 431.476L565.745 431.678C565.505 431.754 565.255 432.031 564.994 432.509L563.533 432.971L563.59 433.151C563.648 433.281 563.729 433.329 563.834 433.296L564.283 433.154L564.312 433.244C564.35 433.364 563.901 433.638 562.965 434.065C562.826 434.043 562.689 434.054 562.554 434.096C562.158 434.304 562.152 435.015 562.536 436.229L562.301 436.501L562.211 436.53C562.121 436.558 561.963 436.476 561.737 436.283L561.503 435.541L561.271 435.12C560.361 435.473 559.689 435.719 559.254 435.856L558.895 435.97L558.443 435.791L558.33 435.827C558.43 436.141 558.42 436.318 558.3 436.356L558.092 436.322L558.262 436.862L558.475 436.597L558.565 436.569L558.686 436.951C558.724 437.071 558.683 437.15 558.563 437.188L558.355 437.154L558.322 437.363L558.641 438.375C558.761 438.337 558.783 438.198 558.707 437.958L558.887 437.901C559.07 438.585 559.117 438.942 559.027 438.97C558.877 439.017 558.756 439.155 558.663 439.382C558.644 439.322 558.605 439.301 558.545 439.32L558.638 440.008L558.724 440.278C558.858 440.235 558.897 440.124 558.841 439.944L558.93 439.916L559.044 440.275C558.829 440.69 558.661 440.916 558.542 440.954L558.57 441.043C558.66 441.015 558.799 441.037 558.986 441.11C558.979 440.98 559.027 440.899 559.132 440.866C559.222 440.838 559.38 440.92 559.605 441.112L559.634 441.202C559.394 441.278 559.293 441.376 559.331 441.496L559.423 441.788L560.019 441.797L563.646 440.132L563.876 440.158C563.977 440.06 564.058 440.002 564.118 439.983C564.146 440.073 564.267 440.142 564.48 440.19L565.283 439.837C565.676 439.779 565.892 439.81 565.93 439.93L565.835 440.256C566.165 440.152 566.511 440.414 566.874 441.041C566.934 441.022 566.974 441.043 566.993 441.103C567.038 441.088 567.155 441.018 567.346 440.892C567.68 440.852 567.877 440.823 567.936 440.804L568.088 440.658C568.434 440.762 568.645 440.803 568.72 440.779L568.776 440.959L568.682 441.286C569.211 441.448 569.735 441.489 570.253 441.408L571.084 441.145C571.543 441.396 571.809 441.51 571.884 441.486L571.825 441.925C571.975 441.878 572.288 442.216 572.764 442.939L572.136 443.533C570.575 444.175 569.091 444.718 567.682 445.163L567.711 445.253L568.812 444.905L568.84 444.995C568.878 445.115 568.837 445.194 568.718 445.232L567.706 445.551C567.257 445.693 567.038 445.861 567.05 446.056L567.313 446.888C567.417 447.217 567.366 447.473 567.159 447.653L566.957 447.717C566.763 447.729 566.595 447.51 566.453 447.06L566.247 446.408C566.209 446.288 566.1 446.257 565.92 446.314C565.036 446.593 563.927 447.15 562.592 447.983L562.092 448.043L562.002 448.071C561.807 448.133 561.399 448.328 560.778 448.656L561.304 450.32L561.384 450.888C561.403 450.948 561.443 450.968 561.502 450.949C561.915 452.517 561.972 453.348 561.672 453.443C561.523 453.49 561.296 453.191 560.993 452.545L560.617 451.353C560.569 451.203 560.559 451.066 560.586 450.942C560.526 450.961 560.262 450.336 559.795 449.065C558.746 449.397 558.096 449.165 557.845 448.371C557.239 447.705 556.635 447.384 556.034 447.41C555.914 447.447 555.669 447.22 555.299 446.727L555.008 445.805C554.882 445.251 554.884 444.945 555.014 444.888L554.754 444.376C553.529 440.031 553.007 437.83 553.187 437.773L553.033 437.6L552.741 436.678C552.699 436.543 552.691 436.413 552.718 436.289C552.699 436.229 552.659 436.209 552.599 436.228L552.398 435.277L552.163 434.535C552.403 434.46 552.506 434.056 552.473 433.325C551.978 433.217 551.718 433.126 551.694 433.051L551.204 431.5C551.162 431.365 551.091 431.247 550.993 431.146C550.831 430.059 550.788 429.504 550.863 429.481L550.652 429.127C550.439 427.776 550.384 426.845 550.487 426.335C550.468 426.275 550.409 426.194 550.312 426.093C550.077 423.892 549.927 422.687 549.861 422.477C549.741 422.515 549.653 422.444 549.596 422.264C549.764 421.65 549.631 420.472 549.196 418.73C549.301 418.697 549.179 417.894 548.831 416.322C548.812 415.586 548.853 415.169 548.954 415.071L548.801 414.898C548.767 414.793 548.909 414.616 549.226 414.367ZM551.704 432.455L551.761 432.635C551.813 432.75 551.892 432.791 551.997 432.758L552.03 432.549L551.917 432.19L551.827 432.218C551.711 432.271 551.671 432.35 551.704 432.455ZM552.4 434.658L552.606 435.311L552.696 435.282C552.611 435.012 552.581 434.816 552.608 434.692L552.4 434.658ZM562.73 433.323C562.783 433.439 562.862 433.48 562.967 433.446C563.087 433.409 563.128 433.33 563.09 433.21L562.73 433.323ZM558.004 435.732L557.971 435.94L558.179 435.973L558.212 435.765L558.004 435.732ZM558.558 437.486L558.738 437.429L558.823 437.699L558.643 437.756L558.558 437.486ZM558.637 438.673C558.734 438.774 558.795 438.862 558.819 438.937L558.963 438.768C558.865 438.667 558.807 438.586 558.788 438.526L558.637 438.673ZM558.864 441.346C558.916 441.462 558.995 441.503 559.1 441.47L559.213 441.434C559.175 441.314 559.088 441.275 558.953 441.318L558.864 441.346ZM565.396 445.985L565.453 446.164L565.896 445.925L565.868 445.835L565.396 445.985ZM569.284 444.756L570.003 444.529L570.06 444.709L569.341 444.936L569.284 444.756Z" fill="#F93838"/>
<path d="M566.591 409.325L567.31 409.098C568.006 409.736 568.399 410.04 568.489 410.012L568.546 410.192C568.602 410.372 568.618 410.63 568.593 410.968C568.691 411.069 568.749 411.15 568.768 411.21L569.047 410.528L569.762 410.599L569.913 410.452L570.121 410.485C570.207 410.392 570.318 410.324 570.453 410.282C571.309 410.489 571.773 410.705 571.844 410.93L571.872 411.02C571.906 412.378 571.998 413.503 572.148 414.395L572.792 415.181C572.967 415.736 572.986 416.422 572.849 417.241C573.146 417.971 573.309 418.382 573.337 418.471C573.457 419.06 573.501 419.409 573.47 419.518L573.73 420.029L573.816 420.299C573.835 420.359 573.814 420.398 573.754 420.417C573.825 420.642 574.081 420.825 574.521 420.966C575.156 422.975 575.536 424.701 575.663 426.145L575.923 426.657C576.134 427.843 576.164 428.46 576.014 428.508C575.899 428.56 575.858 428.639 575.891 428.744C576.14 429.375 576.353 429.736 576.53 429.828L576.587 430.008C576.455 430.215 576.55 431.141 576.872 432.787C576.757 432.84 576.716 432.919 576.749 433.024C576.824 433 577.001 433.142 577.279 433.45L577.592 434.439C577.942 435.549 578.018 436.415 577.82 437.038L578.028 437.071C578.009 437.011 578.029 436.972 578.089 436.953L578.236 437.105L578.435 437.734C578.473 437.854 578.432 437.933 578.312 437.971L578.601 438.572L578.658 438.752L578.388 438.837L578.473 439.107C578.653 439.05 578.762 439.082 578.8 439.202C578.952 439.681 579.162 440.242 579.43 440.882C579.711 441.981 579.822 442.539 579.762 442.558C579.567 442.62 579.416 442.766 579.308 442.998L578.768 443.169L578.82 443.647C578.858 443.767 578.907 443.817 578.967 443.798C579.408 445.506 579.523 446.393 579.314 446.459C578.999 446.558 578.341 445.414 577.339 443.027C577.279 443.046 577.23 442.995 577.192 442.875L577.041 443.022C576.793 442.705 576.546 442.552 576.303 442.563L576.251 442.085L575.966 441.185C575.867 440.87 575.736 440.351 575.573 439.628L575.483 439.656C575.408 439.68 575.325 439.937 575.233 440.428L574.902 440.631L574.636 440.418L574.485 440.565C574.425 440.584 574.207 440.521 573.832 440.376C573.639 440.964 573.505 441.271 573.43 441.294L573.34 441.323C572.946 441.117 572.73 440.955 572.692 440.835C572.095 438.32 571.777 437.002 571.739 436.882L571.829 436.854C571.731 436.753 571.673 436.672 571.654 436.612C571.595 435.955 571.591 435.527 571.644 435.329C571.524 435.367 571.445 435.326 571.408 435.206L571.123 434.307C570.809 432.477 570.521 431.15 570.261 430.326L570.351 430.297C570.253 430.196 570.194 430.116 570.176 430.056C570.243 429.903 570.171 429.364 569.962 428.441C569.842 428.479 569.754 428.408 569.697 428.228C569.517 427.659 569.201 426.242 568.749 423.977L568.517 423.556C568.429 423.122 568.423 422.893 568.498 422.869C568.4 422.768 568.342 422.688 568.323 422.628C567.788 420.934 567.5 419.607 567.46 418.647L567.314 418.495C567.295 418.435 567.315 418.396 567.375 418.377L567.143 417.956C566.949 417.341 566.739 416.154 566.512 414.396C566.254 413.785 566.063 413.285 565.939 412.895L566.091 412.748L566.181 412.72L566.389 412.753C566.417 412.216 566.412 411.888 566.374 411.768L566.09 410.869L566.591 409.325ZM575.422 426.32L575.535 426.68L575.625 426.652L575.512 426.292L575.422 426.32ZM575.531 426.978L575.701 427.518L575.791 427.49L575.682 426.832L575.654 426.742C575.539 426.795 575.498 426.874 575.531 426.978ZM573.605 439.656L573.718 440.016L573.808 439.988L573.695 439.628L573.605 439.656Z" fill="#F93838"/>
<path d="M575.605 406.329L575.763 406.279C576.641 406.661 577.213 407.272 577.478 408.111C577.825 407.853 578.186 407.483 578.562 407.002C578.726 406.95 578.912 406.858 579.118 406.727L579.264 406.879L579.185 407.176L579.859 406.963C580.069 406.897 580.322 406.784 580.617 406.624C580.722 406.591 581.563 406.672 583.141 406.866C583.291 406.819 583.654 406.77 584.231 406.719L584.63 406.494C585.158 406.393 585.595 406.288 585.939 406.179L586.209 406.094C587.423 406.024 588.339 406.237 588.957 406.734C590.665 408.124 591.649 409.231 591.91 410.055C591.929 410.115 591.927 410.215 591.905 410.354C592.418 411.56 592.894 412.572 593.334 413.389L593.492 413.265L593.56 413.244L593.581 413.311C593.432 414.611 593.378 415.329 593.421 415.464C594.414 418.398 595.122 420.533 595.543 421.867L595.392 422.013L595.234 422.063C595.145 422.092 595.029 422.038 594.887 421.901C594.773 421.541 594.319 420.391 593.524 418.449C593.121 419.78 592.67 420.648 592.171 421.053C592.153 420.993 592.113 420.972 592.053 420.991C592.095 420.549 592.106 420.298 592.087 420.238L591.93 420.288C592.001 420.513 591.977 420.644 591.857 420.682L591.767 420.71L591.581 420.67C591.619 420.79 591.608 420.86 591.548 420.879L591.688 421.008C591.707 421.068 591.568 421.334 591.273 421.806L590.817 421.851C590.482 422.666 590.235 423.19 590.077 423.421C590.17 423.507 590.226 423.58 590.245 423.64L590.033 423.905L589.448 424.089C589.388 424.108 589.349 424.088 589.33 424.028C588.739 424.347 588.478 424.618 588.549 424.843C588.808 425.504 588.984 425.984 589.079 426.284L589.839 428.69C590.28 430.084 590.374 430.878 590.123 431.073L590.033 431.102C589.898 431.144 589.547 430.53 588.98 429.258C588.868 429.162 588.314 428.009 587.32 425.801L587.252 425.822C586.971 425.977 586.809 426.061 586.764 426.075C585.835 426.369 585.151 426.395 584.712 426.155C584.277 426.028 583.971 425.869 583.796 425.678C583.631 425.73 583.383 425.651 583.054 425.442C583.073 425.502 583.071 425.602 583.049 425.74C583.169 425.703 583.366 425.83 583.64 426.123L583.661 426.19L583.728 426.639C583.893 426.587 583.995 426.621 584.032 426.741C584.16 427.145 584.067 427.554 583.753 427.967C583.648 428 583.569 427.934 583.517 427.769C583.503 427.724 583.471 427.545 583.421 427.231L583.297 427.072L583.201 426.533L583.015 426.493C583.148 426.913 583.217 427.237 583.224 427.466C583.355 427.672 583.458 427.895 583.534 428.135L583.444 428.163C583.463 428.223 583.502 428.244 583.562 428.225L583.607 428.68L583.714 429.018L583.467 429.096L583.552 429.366L583.681 429.226L583.771 429.197L584.131 430.024L584.159 430.114L584.204 430.569L584.024 430.626L583.968 430.446L583.81 430.496L583.879 431.34L583.986 431.677C584.151 431.625 584.353 431.874 584.593 432.425L584.773 432.368L584.886 432.728C584.766 432.766 584.678 432.695 584.621 432.515L584.554 432.536L584.599 432.992L584.791 433.599C584.829 433.719 584.705 433.824 584.421 433.914L584.47 434.071L584.713 434.291C584.809 434.805 584.879 435.129 584.921 435.264C584.981 435.245 585.021 435.266 585.04 435.326C584.94 435.374 584.904 435.443 584.932 435.533C585.037 435.5 585.099 435.513 585.118 435.573C585.075 435.801 585.077 435.99 585.124 436.14L585.259 436.567C585.316 436.747 585.367 436.83 585.412 436.816L585.479 437.264L585.884 438.546L586.115 439.042C586.152 439.261 586.034 439.488 585.762 439.722C585.657 439.756 585.55 439.6 585.441 439.255L585.261 439.312L585.425 439.829L585.335 439.857L585.031 439.756C585.069 439.875 585.028 439.954 584.908 439.992L585.054 440.144L585.083 440.234L584.993 440.262L584.807 440.222L584.767 440.408L584.796 440.498C584.975 440.441 585.137 440.456 585.279 440.543C585.38 440.445 585.453 440.389 585.498 440.375C585.551 440.49 585.63 440.531 585.735 440.498L585.825 441.409L585.972 441.56L585.932 441.746L586.156 442.145L585.786 442.46L585.578 442.427C585.492 442.52 585.419 442.576 585.359 442.595L584.712 442.033L584.561 442.179L584.224 442.286C584.044 442.343 583.809 441.914 583.521 440.999L583.554 440.791C583.378 440.599 583.271 440.444 583.233 440.324L583.251 440.145C583.232 440.085 583.181 440.002 583.098 439.896C583.06 439.776 582.934 439.091 582.72 437.839C582.631 437.768 582.566 437.665 582.523 437.531C582.55 437.407 582.544 437.285 582.507 437.165C582.417 437.193 582.089 437.041 581.522 436.709L581.579 436.889L581.399 436.946C581.366 436.841 581.261 436.718 581.084 436.575C581.107 436.437 581.108 436.337 581.089 436.277C580.924 436.329 580.664 436 580.307 435.288L580.151 434.793L579.794 432.804L579.563 432.308C579.204 430.806 578.913 429.702 578.69 428.998L578.398 428.62C578.415 428.153 577.659 425.267 576.132 419.963C574.73 414.223 574.209 411.296 574.568 411.182C574.605 410.099 574.826 409.493 575.23 409.366L575.209 409.298L574.966 409.078C575.386 408.945 575.515 408.468 575.354 407.645C575.459 407.612 575.552 407.203 575.634 406.419L575.605 406.329ZM582.499 411.718L582.466 411.927C582.526 411.908 582.563 411.921 582.577 411.966C582.668 411.888 582.773 411.83 582.893 411.792L582.864 411.702L582.499 411.718ZM582.951 415.261L582.883 415.282C582.734 415.329 582.334 414.664 581.684 413.286L581.595 413.315L580.686 414.665C580.357 414.769 580.312 415.41 580.552 416.587C580.373 416.644 580.309 416.755 580.361 416.92C581.209 418.614 581.761 419.866 582.017 420.675L582.218 420.686C583.641 420.236 585.287 419.056 587.156 417.147C586.979 416.065 586.958 415.503 587.092 415.46L587.182 415.432L587.268 415.702L587.335 415.681C587.215 414.466 587.126 413.768 587.069 413.588L587.041 413.498L586.889 413.645L586.8 413.673L586.546 412.245L586.045 411.834L584.291 411.993C583.835 412.269 583.569 412.419 583.494 412.443C583.456 412.323 583.377 412.282 583.257 412.32L582.83 412.454C582.711 412.492 582.822 413.339 583.164 414.995L582.951 415.261ZM586.855 414.398L587.013 414.348L587.148 414.775C587.186 414.895 587.152 414.972 587.047 415.005L586.855 414.398ZM587.206 415.82L587.341 416.248L587.431 416.219L587.296 415.792L587.206 415.82ZM583.974 423.272C583.461 423.368 583.137 423.437 583.002 423.48L583.109 423.817C583.211 423.983 583.471 424 583.891 423.867L584.228 423.76C584.19 423.641 584.283 423.545 584.508 423.474C584.546 423.594 584.595 423.644 584.655 423.626C585.641 423.149 586.075 422.723 585.957 422.349L585.867 422.377C585.384 422.727 584.754 423.025 583.974 423.272ZM582.717 425.549L582.88 426.066L583.037 426.016L582.807 425.52L582.717 425.549ZM583.769 428.332L583.949 428.276L584.153 428.607L583.994 428.731L583.855 428.602L583.769 428.332ZM584.181 429.637L584.451 429.551L584.614 430.069C584.648 430.173 584.604 430.245 584.484 430.283C584.38 430.316 584.311 430.28 584.277 430.175L584.249 430.085L584.181 429.637ZM584.591 429.68L584.838 429.602L584.895 429.782C584.933 429.902 584.899 429.979 584.794 430.012L584.704 430.04L584.591 429.68ZM584.451 430.491L584.631 430.434L584.709 430.682L584.53 430.738L584.451 430.491ZM584.131 430.963L584.311 430.906L584.514 431.238L584.356 431.362L584.216 431.233L584.131 430.963ZM584.903 432.154L585.15 432.076L585.256 432.413C585.294 432.533 585.253 432.612 585.133 432.65L585.066 432.671L584.903 432.154ZM581.354 437.43L581.534 437.373L581.641 437.71L581.461 437.767L581.354 437.43ZM581.456 438.066L581.636 438.009L581.849 438.683L581.67 438.74L581.456 438.066ZM582.002 437.992C582.016 438.037 582.053 438.05 582.113 438.031C582.219 438.575 582.219 438.863 582.114 438.896L581.968 438.745C581.83 438.31 581.842 438.059 582.002 437.992ZM581.659 438.941L581.816 438.892L582.008 439.499L582.221 439.234L582.311 439.205L582.503 439.812C582.536 439.917 582.493 439.989 582.373 440.027L582.283 440.055L582.262 439.988C582.284 439.849 582.285 439.749 582.266 439.689L582.058 439.656L582.193 440.083L582.036 440.133L581.659 438.941ZM582.863 441.578C582.988 441.555 583.066 441.596 583.1 441.701C583.138 441.821 583.097 441.9 582.977 441.938L582.712 441.725L582.863 441.578Z" fill="#F93838"/>
<path d="M605.13 398.31L605.399 398.225L605.456 398.405L605.423 398.613L605.631 398.646L605.721 398.618C605.664 398.438 605.696 398.329 605.816 398.291L606.175 398.178L606.384 398.211C606.327 398.031 606.358 397.922 606.478 397.884L606.568 397.856L607.07 398.192L607.344 397.808L607.524 397.751L607.552 397.841C607.53 397.98 607.529 398.08 607.548 398.14L607.699 397.993L607.969 397.908C607.997 397.998 608.243 398.151 608.707 398.367C609.035 398.989 609.379 399.243 609.739 399.129C609.93 399.266 610.049 399.328 610.094 399.314L610.061 399.522C610.321 399.72 610.506 399.991 610.614 400.336C610.499 400.389 610.458 400.468 610.492 400.573C610.585 400.659 610.652 400.769 610.695 400.904L610.605 400.933C610.956 401.416 611.268 401.779 611.542 402.022L611.964 401.79L612.053 401.761C612.113 401.742 612.153 401.763 612.172 401.823L612.323 401.676L612.503 401.619C613.5 401.749 614.394 402.39 615.186 403.541C615.849 404.387 616.2 404.87 616.237 404.99C616.31 405.428 616.356 405.678 616.375 405.738C616.422 405.888 617.027 406.653 618.188 408.034C619.094 409.858 619.787 410.694 620.266 410.543C620.77 408.801 621.082 407.911 621.202 407.873C621.128 407.533 621.31 406.651 621.75 405.226C622.011 405.061 622.146 404.656 622.156 404.01C622.746 403.164 623.131 402.713 623.311 402.656L623.164 402.504L623.135 402.414C623.358 402.13 623.483 401.793 623.509 401.406L623.66 401.259L624.02 401.146L623.987 401.354L624.1 401.714L624.37 401.628C624.697 400.734 625.063 400.222 625.467 400.095C625.486 400.155 625.526 400.175 625.586 400.156C625.791 399.712 626.025 399.407 626.286 399.243L626.342 399.422C626.238 399.456 626.072 399.871 625.846 400.667L625.903 400.847L626.116 400.582L626.206 400.554L626.291 400.824C626.111 400.88 626.04 400.969 626.078 401.089L626.617 400.918C626.523 400.619 626.72 400.095 627.208 399.347C627.556 397.786 627.946 396.937 628.381 396.8L628.234 396.648L628.206 396.558C628.544 395.594 628.821 395.012 629.038 394.811C628.981 394.632 629.372 393.783 630.211 392.265C630.177 392.16 630.422 391.786 630.944 391.143L631.213 391.057C631.261 391.207 631.368 391.338 631.535 391.45C631.284 392.272 631.156 392.807 631.152 393.055C630.638 393.564 630.302 394.066 630.145 394.561C630.434 394.535 630.661 394.628 630.827 394.84L630.907 395.408L630.997 395.38L631.148 395.233L631.295 395.384L631.352 395.564C631.174 396.148 631.091 397.032 631.102 398.215C631.346 398.204 631.592 398.357 631.84 398.674C632.406 400.672 632.704 401.93 632.736 402.447L632.883 402.599C633.18 403.956 633.324 404.933 633.314 405.529C633.445 405.735 633.551 405.966 633.632 406.22L633.542 406.249C633.561 406.309 633.6 406.329 633.66 406.31C634.101 408.018 634.246 408.895 634.096 408.942L634.243 409.094L634.3 409.274C634.163 409.466 634.13 409.674 634.201 409.899C634.325 409.876 634.404 409.917 634.437 410.022C634.523 410.292 634.368 410.637 633.974 411.059L634.003 411.149C634.097 411.448 634.235 411.57 634.414 411.513L634.528 411.873C634.566 411.993 634.495 412.081 634.315 412.138L634.344 412.228L634.609 412.441C634.805 413.269 634.904 413.897 634.907 414.325C634.997 414.61 635.242 414.862 635.641 415.082C635.493 415.344 635.398 415.67 635.358 416.062L635.59 416.484L635.523 416.9C635.659 417.121 635.755 417.322 635.812 417.502C635.754 417.734 635.751 417.933 635.803 418.098C635.863 418.079 635.902 418.1 635.921 418.16L635.77 418.306L636.404 419.689C636.382 419.828 636.408 420.116 636.48 420.555C636.847 421.297 637.058 421.757 637.115 421.937L636.902 422.202C636.883 422.142 636.844 422.122 636.784 422.141L636.954 422.681L637.044 422.652L636.931 422.292L637.11 422.236C637.167 422.415 637.264 422.616 637.399 422.837C637.518 423.212 637.412 423.608 637.083 424.025C636.655 424.028 636.367 424.053 636.217 424.101L636.127 424.129C636.365 424.466 636.501 424.687 636.534 424.792C636.115 424.925 636.189 425.89 636.757 427.689C636.533 427.76 636.647 428.746 637.099 430.648L636.886 430.913C636.766 430.951 636.59 430.809 636.356 430.487C636.276 430.232 636.151 429.315 635.981 427.737L635.835 427.585C635.816 427.525 635.836 427.486 635.896 427.467L635.664 427.045L635.181 425.516C635.121 425.535 635.022 425.534 634.883 425.512C634.726 425.693 634.565 425.81 634.4 425.862C634.167 425.54 633.99 425.398 633.87 425.436L633.78 425.464L633.506 425.848C633.161 425.693 632.943 425.63 632.853 425.658L632.801 425.18L632.602 424.551L632.782 424.494L632.838 424.674L632.928 424.645L632.758 424.106L632.488 424.191L632.431 424.011C632.412 423.951 632.433 423.911 632.493 423.893C632.474 423.833 632.434 423.812 632.374 423.831L632.322 423.353L632.209 422.993L632.298 422.965L632.507 422.998L632.398 422.34C632.263 422.382 632.018 422.13 631.664 421.582C631.667 421.384 631.699 421.275 631.758 421.256L631.612 421.104L631.299 420.115C631.276 419.99 631.317 419.911 631.422 419.878L631.129 419.575C631.165 419.481 631.147 419.322 631.076 419.097C630.927 419.144 630.723 418.813 630.466 418.103L630.442 417.715L630.295 417.563C630.282 417.106 630.229 416.727 630.134 416.427L630.105 416.337L630.285 416.28L630.342 416.46L630.612 416.375C630.866 416.294 631.008 416.118 631.037 415.845C630.849 415.509 630.702 415.357 630.597 415.39L630.545 414.912C630.469 414.672 630.214 414.489 629.778 414.363L629.608 413.823C629.708 413.462 629.78 413.274 629.825 413.26L629.678 413.108L629.394 412.209L629.574 412.152L629.659 412.422L629.749 412.394C629.721 412.304 629.743 412.165 629.815 411.977L629.432 411.702L629.375 411.523C629.495 411.485 629.558 411.267 629.564 410.869L629.299 410.656L629.242 410.476C629.368 410.041 629.355 409.583 629.204 409.103C629.106 409.002 629.048 408.922 629.029 408.862L629.18 408.715L629.033 408.564L628.891 408.114C628.651 408.19 628.494 408.108 628.418 407.868L628.545 407.333L628.489 407.153L628.342 407.002C628.057 407.092 627.531 408.346 626.763 410.765C626.269 411.498 626.053 411.962 626.115 412.157L626.826 414.406C626.892 414.615 626.897 414.944 626.84 415.39C627.455 417.702 627.665 418.889 627.471 418.95C627.306 419.002 626.644 417.431 625.486 414.235L625.307 414.292C625.123 415.537 624.911 416.429 624.669 416.967C624.697 417.057 624.589 417.652 624.343 418.751C624.433 419.036 624.408 419.374 624.268 419.765C624.31 419.899 624.604 420.202 625.148 420.673C625.088 420.692 624.913 421.077 624.623 421.829C623.785 421.104 623.313 420.759 623.208 420.792L622.848 420.905C622.905 421.085 622.874 421.194 622.754 421.232L621.722 420.47L621.637 420.2L621.618 419.514L621.405 419.779L621.315 419.807C621.156 419.511 621.069 419.341 621.055 419.296L621.263 419.329L621.178 419.059L620.998 419.116L621.055 419.296C619.647 418.075 618.66 417.035 618.091 416.176C617.987 416.209 617.879 416.078 617.77 415.783C617.713 415.603 617.864 415.457 618.224 415.343L618.167 415.163L618.077 415.192C617.92 415.373 617.789 415.48 617.684 415.513C617.001 415.02 616.619 414.646 616.539 414.391L616.515 414.003C616.425 414.032 616.286 414.01 616.099 413.937L616.009 413.965C616.307 414.91 616.468 416.046 616.493 417.374C616.59 417.475 616.649 417.555 616.668 417.615C616.567 417.713 616.486 417.772 616.426 417.791L616.455 417.88L616.72 418.094L616.772 418.572C616.832 418.553 616.871 418.573 616.89 418.633C616.83 418.652 616.749 418.81 616.645 419.107L616.791 419.258C616.81 419.318 616.79 419.357 616.73 419.376C616.968 419.713 617.104 419.934 617.137 420.039C617.157 420.363 617.114 420.541 617.009 420.574C616.915 420.274 616.689 420.082 616.333 419.997C616.389 420.176 616.298 420.304 616.058 420.38L616.087 420.47L616.266 420.413L616.323 420.593C616.099 420.664 615.865 420.969 615.623 421.507C615.97 421.925 616.195 422.117 616.3 422.084L616.57 421.999C616.585 421.631 616.57 421.373 616.522 421.223L616.702 421.166L616.844 421.616C616.897 421.731 616.976 421.772 617.081 421.739C616.996 421.469 616.97 421.18 617.005 420.872L617.185 420.816L617.417 421.237C617.58 421.911 617.624 422.259 617.549 422.283C617.568 422.343 617.608 422.364 617.668 422.345L617.72 422.823L617.952 423.244C617.814 423.486 617.693 423.623 617.588 423.656L617.853 423.869L617.995 424.319L617.905 424.347L617.578 424.252C617.631 424.417 617.628 424.616 617.569 424.849C617.667 424.95 617.725 425.03 617.744 425.09L617.565 425.147L617.356 425.114L617.413 425.294L617.972 425.81L618 425.9L617.641 426.014L617.432 425.98C617.451 426.04 617.431 426.08 617.371 426.099C617.81 427.279 618.124 428.169 618.313 428.769L618.655 429.848C618.673 429.908 618.653 429.947 618.593 429.966C618.612 430.026 618.651 430.047 618.711 430.028C618.974 431.066 619.015 431.614 618.835 431.671C618.34 431.563 617.95 431.06 617.666 430.161L617.268 428.901L617.088 428.958C617.372 429.858 617.125 430.43 616.346 430.677L616.256 430.705C616.136 430.743 616.057 430.702 616.019 430.582L615.906 430.222C615.849 430.042 615.785 429.007 615.715 427.117L615.601 426.757L615.512 426.785C615.426 426.878 615.315 426.946 615.18 426.989C615.013 426.877 614.915 426.776 614.887 426.686C614.675 427.214 614.442 427.519 614.187 427.599C614.149 427.48 614.07 427.438 613.95 427.476L613.86 427.505C613.864 427.932 613.889 428.221 613.936 428.371L613.993 428.551C613.739 428.631 613.537 428.827 613.388 429.138L612.82 429.219C612.839 429.278 612.819 429.318 612.759 429.337C612.721 429.217 612.642 429.176 612.522 429.214L612.371 429.361C612.273 429.26 612.214 429.179 612.195 429.119C611.759 426.85 611.562 425.395 611.607 424.754L611.579 424.664C611.503 424.425 611.435 424.314 611.375 424.333L610.759 421.758C610.466 421.455 610.309 421.273 610.291 421.213C610.205 420.943 609.828 419.645 609.158 417.317L609.144 416.333C608.902 416.194 608.765 416.073 608.732 415.968C608.826 415.641 608.814 415.184 608.694 414.595C608.574 414.633 608.495 414.592 608.457 414.472C608.395 414.277 608.381 413.919 608.414 413.397L608.21 413.066L608.244 412.858C608.225 412.798 608.166 412.717 608.068 412.616C607.892 411.798 607.81 411.329 607.822 411.21L607.443 410.638L607.144 408.753C607.125 408.693 607.086 408.673 607.026 408.692L606.135 404.621L605.988 404.469C605.966 403.981 605.941 403.693 605.912 403.603L605.766 403.451C605.533 402.09 605.381 400.984 605.31 400.133C605.291 400.073 605.233 399.992 605.135 399.891C604.951 398.944 604.949 398.417 605.13 398.31ZM630.349 394.892L630.434 395.162L630.614 395.105L630.528 394.835L630.349 394.892ZM624.114 400.819L624.204 400.791L624.233 400.881C624.271 401 624.23 401.079 624.11 401.117L624.02 401.146L623.991 401.056C623.968 400.931 624.009 400.852 624.114 400.819ZM625.506 401.468L625.596 401.439C625.715 401.401 625.756 401.322 625.719 401.202L625.69 401.112C625.6 401.141 625.539 401.259 625.506 401.468ZM623.604 402.959C623.843 402.619 624.105 402.405 624.389 402.315L624.361 402.225L624.129 401.804L623.949 401.86C623.681 402.473 623.566 402.839 623.604 402.959ZM624.645 403.124L624.702 403.304L624.792 403.276C625.035 402.952 625.258 402.717 625.459 402.571C625.366 402.485 625.298 402.374 625.255 402.239L625.165 402.268C624.968 402.791 624.795 403.077 624.645 403.124ZM623.084 403.816L623.112 403.906L623.202 403.877C623.382 403.82 623.505 403.584 623.571 403.167L623.363 403.134C623.282 403.555 623.189 403.782 623.084 403.816ZM624.935 405.605L624.991 405.785L625.171 405.728C625.261 405.7 625.313 405.551 625.327 405.283L625.058 405.368C624.942 405.421 624.901 405.5 624.935 405.605ZM624.987 406.083L625.015 406.173L625.195 406.116L625.11 405.846C624.995 405.899 624.954 405.978 624.987 406.083ZM617.781 409.25L617.867 409.52L618.226 409.407C618.207 409.347 618.209 409.247 618.231 409.108L617.781 409.25ZM613.34 413.028L613.368 413.118C613.535 413.23 613.643 413.361 613.69 413.511C613.78 413.483 613.862 413.325 613.936 413.038L613.822 412.678L613.732 412.706C613.575 412.888 613.445 412.995 613.34 413.028ZM628.645 408.587L628.735 408.559C628.86 408.536 628.939 408.577 628.972 408.682L629 408.772L628.91 408.8C628.79 408.838 628.712 408.797 628.674 408.677L628.645 408.587ZM633.315 407.409C633.372 407.589 633.31 407.707 633.131 407.764L633.159 407.854C633.212 407.969 633.291 408.01 633.396 407.977L633.486 407.948C633.424 407.753 633.407 407.594 633.433 407.47L633.405 407.38L633.315 407.409ZM616.141 413.132L616.467 413.227L616.354 412.867L616.264 412.896C616.149 412.948 616.108 413.027 616.141 413.132ZM619.284 416.195C619.389 416.162 619.567 416.205 619.819 416.323L619.908 416.295L619.88 416.205C619.852 416.115 619.694 416.033 619.407 415.958C619.292 416.011 619.251 416.09 619.284 416.195ZM618.924 416.309L618.981 416.489C619.01 416.579 619.246 416.702 619.691 416.858L619.606 416.588C619.43 416.396 619.203 416.303 618.924 416.309ZM615.187 418.875L615.154 419.083L615.211 419.263C615.301 419.234 615.459 419.316 615.684 419.509C615.785 419.411 615.865 419.353 615.925 419.334L615.897 419.244C615.807 419.272 615.57 419.149 615.187 418.875ZM616.223 419.339L616.309 419.608C616.421 419.441 616.522 419.343 616.611 419.315L616.583 419.225L616.223 419.339ZM615.675 420.105C615.536 420.083 615.437 420.082 615.377 420.101L615.434 420.281L615.973 420.11L615.888 419.84L615.675 420.105ZM616.949 422.572L617.181 422.993L617.091 423.022C617.189 423.123 617.247 423.203 617.266 423.263L617.446 423.206C617.309 422.722 617.293 422.463 617.398 422.43C617.31 422.359 617.223 422.188 617.138 421.919C616.917 422.054 616.854 422.272 616.949 422.572ZM616.523 423.102L616.58 423.282L616.939 423.168L616.882 422.988L616.523 423.102ZM614.408 424.858L614.465 425.038C614.585 425 614.626 424.922 614.588 424.802L614.531 424.622C614.416 424.675 614.375 424.754 614.408 424.858ZM637.258 424.266L637.438 424.21L637.551 424.569C637.589 424.689 637.548 424.768 637.428 424.806L637.258 424.266ZM637.835 425.469C637.97 425.426 638.202 425.848 638.531 426.733C638.442 426.761 638.207 426.539 637.826 426.065L637.713 425.706C637.69 425.581 637.731 425.502 637.835 425.469Z" fill="#F93838"/>
<path d="M633.995 387.581C635.085 387.798 635.813 388.483 636.178 389.637L636.376 390.267L636.646 390.181C636.523 389.792 636.5 389.197 636.577 388.398L636.808 388.424C636.92 388.257 637.02 388.159 637.11 388.13C637.722 388.135 638.254 388.437 638.706 389.036C639.066 388.922 639.551 388.736 640.161 388.477L641.291 388.219C641.594 387.926 641.812 387.758 641.947 387.715C643.468 387.366 644.536 387.095 645.15 386.901C645.69 386.73 646.046 386.477 646.221 386.142C646.58 386.028 647.022 386.565 647.545 387.752C647.593 388.165 647.593 388.503 647.544 388.766C647.604 388.747 647.646 388.775 647.669 388.85C647.584 388.943 647.235 389.119 646.625 389.378L646.772 389.529C646.75 389.668 646.748 389.768 646.767 389.828C646.892 389.805 646.971 389.846 647.004 389.951C646.987 390.104 646.987 390.211 647.006 390.271L648.513 390.191L648.57 390.371C648.091 390.522 647.792 390.856 647.675 391.371C647.345 391.475 647.078 391.593 646.872 391.723C646.733 391.701 646.626 391.702 646.551 391.726C646.589 391.846 646.458 391.953 646.159 392.048L646.187 392.138L646.785 392.073L646.841 392.253L646.459 392.373C646.1 392.487 645.364 392.818 644.252 393.367L644.338 393.637L643.124 394.021L643.444 395.033C643.738 395.962 643.735 396.474 643.435 396.569C643.255 396.626 642.993 396.239 642.648 395.408L642.674 395.177C642.36 394.6 642.173 394.321 642.113 394.34C640.899 394.724 640.344 395.105 640.448 395.485C640.318 396.119 640.304 396.594 640.403 396.909C640.836 397.86 641.09 398.456 641.166 398.696C641.174 399.138 641.201 399.434 641.249 399.584L641.403 399.758C641.44 400.554 641.507 401.209 641.603 401.723C641.701 401.824 641.759 401.904 641.778 401.964L641.745 402.173C641.92 402.464 642.067 402.591 642.187 402.553L644.299 401.885C644.514 401.471 644.862 401.188 645.341 401.037C647.768 400.27 649.193 400.059 649.615 400.403L649.52 400.73C649.82 400.635 650.146 401.043 650.5 401.954C651.092 401.898 651.418 401.861 651.478 401.842L651.507 401.932L651.474 402.141C651.598 402.118 651.677 402.159 651.71 402.264C651.446 402.627 651.239 402.833 651.09 402.88L651.495 403.148L651.524 403.238C651.269 403.318 651.191 403.516 651.291 403.831C651.1 403.957 650.99 404.025 650.96 404.034L650.931 403.944C650.871 403.963 650.851 404.003 650.87 404.063L650.37 404.122C650.31 404.141 650.061 404.318 649.623 404.654C649.484 404.632 649.385 404.631 649.325 404.65L649.292 404.858C649.577 404.768 649.813 404.759 650.001 404.832L650.45 404.69L650.514 404.892C650.274 404.968 650.024 405.245 649.763 405.723L648.302 406.185L648.359 406.365C648.417 406.495 648.498 406.543 648.603 406.51L649.053 406.368L649.081 406.458C649.119 406.578 648.67 406.852 647.734 407.28C647.595 407.257 647.458 407.268 647.323 407.31C646.928 407.518 646.922 408.229 647.305 409.443L647.07 409.715L646.98 409.744C646.89 409.772 646.732 409.69 646.507 409.497L646.272 408.755L646.04 408.334C645.13 408.688 644.458 408.933 644.024 409.07L643.664 409.184L643.212 409.005L643.1 409.041C643.199 409.355 643.189 409.532 643.069 409.57L642.861 409.536L643.031 410.076L643.244 409.811L643.334 409.783L643.455 410.165C643.493 410.285 643.452 410.364 643.332 410.402L643.124 410.368L643.091 410.577L643.411 411.589C643.53 411.551 643.552 411.412 643.477 411.172L643.656 411.115C643.84 411.799 643.886 412.156 643.796 412.184C643.647 412.231 643.525 412.369 643.432 412.596C643.413 412.536 643.374 412.515 643.314 412.534L643.408 413.222L643.493 413.492C643.628 413.449 643.667 413.338 643.61 413.158L643.7 413.13L643.813 413.489C643.598 413.904 643.431 414.13 643.311 414.168L643.339 414.257C643.429 414.229 643.568 414.251 643.756 414.324C643.748 414.194 643.796 414.113 643.901 414.08C643.991 414.052 644.149 414.134 644.374 414.326L644.403 414.416C644.163 414.492 644.062 414.59 644.1 414.71L644.192 415.002L644.789 415.011L648.415 413.346L648.646 413.372C648.747 413.274 648.827 413.216 648.887 413.197C648.915 413.287 649.036 413.356 649.249 413.404L650.052 413.051C650.446 412.993 650.661 413.024 650.699 413.144L650.605 413.47C650.934 413.366 651.281 413.628 651.644 414.255C651.703 414.236 651.743 414.257 651.762 414.317C651.807 414.302 651.925 414.232 652.115 414.106C652.449 414.066 652.646 414.037 652.706 414.018L652.857 413.872C653.203 413.977 653.414 414.017 653.489 413.993L653.546 414.173L653.451 414.5C653.98 414.663 654.504 414.703 655.022 414.622L655.854 414.359C656.312 414.61 656.579 414.724 656.653 414.7L656.594 415.139C656.744 415.092 657.057 415.43 657.533 416.153L656.905 416.747C655.344 417.389 653.86 417.932 652.452 418.377L652.48 418.467L653.581 418.119L653.61 418.209C653.648 418.329 653.607 418.408 653.487 418.446L652.476 418.765C652.026 418.907 651.807 419.075 651.819 419.27L652.082 420.102C652.186 420.431 652.135 420.687 651.929 420.867L651.726 420.931C651.532 420.943 651.364 420.724 651.222 420.274L651.016 419.622C650.978 419.502 650.869 419.471 650.69 419.528C649.806 419.807 648.696 420.364 647.361 421.198L646.861 421.257L646.771 421.285C646.576 421.347 646.168 421.542 645.547 421.87L646.073 423.534L646.153 424.102C646.172 424.162 646.212 424.182 646.272 424.163C646.685 425.731 646.741 426.562 646.442 426.657C646.292 426.704 646.065 426.405 645.762 425.759L645.386 424.567C645.338 424.417 645.328 424.28 645.355 424.156C645.295 424.175 645.031 423.55 644.564 422.279C643.515 422.611 642.865 422.379 642.614 421.585C642.008 420.919 641.405 420.598 640.803 420.624C640.683 420.661 640.438 420.434 640.068 419.941L639.777 419.019C639.651 418.465 639.653 418.159 639.784 418.102L639.523 417.59C638.298 413.245 637.776 411.044 637.956 410.988L637.802 410.814L637.511 409.892C637.468 409.757 637.46 409.627 637.487 409.503C637.468 409.443 637.428 409.423 637.369 409.442L637.167 408.492L636.933 407.749C637.172 407.674 637.276 407.27 637.242 406.539C636.747 406.431 636.487 406.34 636.464 406.265L635.973 404.714C635.931 404.579 635.861 404.461 635.763 404.36C635.601 403.273 635.557 402.718 635.632 402.695L635.421 402.341C635.209 400.99 635.154 400.059 635.256 399.549C635.237 399.489 635.179 399.409 635.081 399.308C634.847 397.106 634.696 395.901 634.63 395.691C634.51 395.729 634.422 395.658 634.365 395.478C634.534 394.864 634.4 393.686 633.965 391.944C634.07 391.911 633.948 391.108 633.6 389.537C633.581 388.8 633.623 388.383 633.724 388.286L633.57 388.112C633.537 388.007 633.679 387.83 633.995 387.581ZM636.473 405.669L636.53 405.849C636.583 405.964 636.662 406.005 636.766 405.972L636.799 405.764L636.686 405.404L636.596 405.432C636.481 405.485 636.44 405.564 636.473 405.669ZM637.169 407.873L637.375 408.525L637.465 408.496C637.38 408.226 637.351 408.03 637.377 407.906L637.169 407.873ZM647.499 406.537C647.552 406.653 647.631 406.694 647.736 406.661C647.856 406.623 647.897 406.544 647.859 406.424L647.499 406.537ZM642.773 408.946L642.74 409.154L642.948 409.187L642.981 408.979L642.773 408.946ZM643.327 410.7L643.507 410.643L643.592 410.913L643.413 410.97L643.327 410.7ZM643.406 411.887C643.504 411.988 643.565 412.076 643.588 412.151L643.732 411.982C643.635 411.881 643.576 411.8 643.557 411.74L643.406 411.887ZM643.633 414.56C643.686 414.676 643.765 414.717 643.869 414.684L643.982 414.648C643.944 414.528 643.858 414.489 643.723 414.532L643.633 414.56ZM650.165 419.199L650.222 419.378L650.666 419.139L650.637 419.049L650.165 419.199ZM654.053 417.97L654.772 417.743L654.829 417.923L654.11 418.15L654.053 417.97Z" fill="#F93838"/>
<path d="M663.038 408.231L654.575 385.283C654.357 384.593 654.351 384.026 654.557 383.582C654.763 383.138 655.173 382.819 655.787 382.625C656.416 382.426 656.935 382.451 657.344 382.702C657.767 382.947 658.088 383.414 658.306 384.104L663.869 407.968L663.038 408.231ZM662.159 412.49L663.405 410.019C663.564 409.738 663.748 409.565 663.957 409.498C664.152 409.437 664.422 409.483 664.768 409.638L667.177 411.004C667.432 411.187 667.591 411.376 667.652 411.571C667.723 411.796 667.692 412.061 667.558 412.367L666.386 414.914C666.181 415.309 666.011 415.527 665.876 415.57C665.636 415.646 665.386 415.609 665.125 415.461L662.429 413.815C662.218 413.667 662.081 413.496 662.02 413.301C661.949 413.076 661.995 412.806 662.159 412.49Z" fill="#F93838"/>
</g>
<rect y="719" width="1920" height="361" fill="url(#paint1_radial)"/>
<path d="M1013.33 50.4583C1013.33 54.0252 988.429 56.9167 957.708 56.9167C926.987 56.9167 902.083 54.0252 902.083 50.4583C902.083 46.8915 926.987 44 957.708 44C988.429 44 1013.33 46.8915 1013.33 50.4583Z" fill="#F2C94C"/>
<path opacity="0.35" fill-rule="evenodd" clip-rule="evenodd" d="M1013.31 50.6644C1012.37 54.1358 987.835 56.9166 957.708 56.9166C927.572 56.9166 903.033 54.1341 902.11 50.6611C902.101 50.6629 902.092 50.6648 902.083 50.6666L790 254H960H1130L1013.33 50.6666C1013.32 50.6658 1013.31 50.6651 1013.31 50.6644Z" fill="url(#paint2_linear)"/>
<path d="M941.548 -45.2635C941.548 -54.1847 948.783 -61.4167 957.708 -61.4167C966.634 -61.4167 973.869 -54.1847 973.869 -45.2635C973.869 -9.23253 1020.47 13.669 1013.45 50.6666C1013.45 47.0254 988.491 44.0735 957.708 44.0735C926.925 44.0735 901.971 47.0254 901.971 50.6666C894.949 13.6689 941.548 -9.23251 941.548 -45.2635Z" fill="url(#paint3_linear)"/>
<path fill-rule="evenodd" clip-rule="evenodd" d="M328 90H582V418H328V90ZM354 101C354 102.657 352.657 104 351 104C349.343 104 348 102.657 348 101C348 99.3431 349.343 98 351 98C352.657 98 354 99.3431 354 101ZM364 104C365.657 104 367 102.657 367 101C367 99.3431 365.657 98 364 98C362.343 98 361 99.3431 361 101C361 102.657 362.343 104 364 104ZM550 101C550 102.657 548.657 104 547 104C545.343 104 544 102.657 544 101C544 99.3431 545.343 98 547 98C548.657 98 550 99.3431 550 101ZM560 104C561.657 104 563 102.657 563 101C563 99.3431 561.657 98 560 98C558.343 98 557 99.3431 557 101C557 102.657 558.343 104 560 104ZM452 101C452 102.657 450.657 104 449 104C447.343 104 446 102.657 446 101C446 99.3431 447.343 98 449 98C450.657 98 452 99.3431 452 101ZM462 104C463.657 104 465 102.657 465 101C465 99.3431 463.657 98 462 98C460.343 98 459 99.3431 459 101C459 102.657 460.343 104 462 104Z" fill="#FFF8F3"/>
<rect x="346" y="117" width="24" height="24" fill="#F2C94C"/>
<rect x="424" y="323" width="24" height="24" fill="#F2C94C"/>
<rect x="385" y="117" width="24" height="24" fill="#F2994A"/>
<rect x="508" y="363" width="24" height="24" fill="#F2994A"/>
<rect x="490" y="286" width="24" height="24" fill="#F2994A"/>
<rect x="385" y="245" width="24" height="24" fill="#F2994A"/>
<rect x="466" y="216" width="24" height="24" fill="#F2994A"/>
<rect x="424" y="117" width="24" height="24" fill="#EB5757"/>
<rect x="511" y="166" width="24" height="24" fill="#EB5757"/>
<rect x="424" y="166" width="24" height="24" fill="#56CCF2"/>
<rect x="466" y="166" width="24" height="24" fill="#2F80ED"/>
<path fill-rule="evenodd" clip-rule="evenodd" d="M1311 90H1565V418H1311V90ZM1337 101C1337 102.657 1335.66 104 1334 104C1332.34 104 1331 102.657 1331 101C1331 99.3431 1332.34 98 1334 98C1335.66 98 1337 99.3431 1337 101ZM1347 104C1348.66 104 1350 102.657 1350 101C1350 99.3431 1348.66 98 1347 98C1345.34 98 1344 99.3431 1344 101C1344 102.657 1345.34 104 1347 104ZM1533 101C1533 102.657 1531.66 104 1530 104C1528.34 104 1527 102.657 1527 101C1527 99.3431 1528.34 98 1530 98C1531.66 98 1533 99.3431 1533 101ZM1543 104C1544.66 104 1546 102.657 1546 101C1546 99.3431 1544.66 98 1543 98C1541.34 98 1540 99.3431 1540 101C1540 102.657 1541.34 104 1543 104ZM1435 101C1435 102.657 1433.66 104 1432 104C1430.34 104 1429 102.657 1429 101C1429 99.3431 1430.34 98 1432 98C1433.66 98 1435 99.3431 1435 101ZM1445 104C1446.66 104 1448 102.657 1448 101C1448 99.3431 1446.66 98 1445 98C1443.34 98 1442 99.3431 1442 101C1442 102.657 1443.34 104 1445 104Z" fill="#FFF8F3"/>
<rect x="1329" y="117" width="24" height="24" fill="#CDC82C"/>
<rect x="1407" y="323" width="24" height="24" fill="#F2C94C"/>
<rect x="1368" y="216" width="24" height="24" fill="#CDC82C"/>
<rect x="1491" y="363" width="24" height="24" fill="#BB6BD9"/>
<rect x="1494" y="216" width="24" height="24" fill="#F2C94C"/>
<rect x="1368" y="285" width="24" height="24" fill="#F2C94C"/>
<rect x="1449" y="216" width="24" height="24" fill="#BB6BD9"/>
<rect x="1368" y="117" width="24" height="24" fill="#CDC82C"/>
<rect x="1494" y="117" width="24" height="24" fill="#BB6BD9"/>
<rect x="1407" y="166" width="24" height="24" fill="#BB6BD9"/>
<rect x="1449" y="363" width="24" height="24" fill="#F2C94C"/>
<path fill-rule="evenodd" clip-rule="evenodd" d="M94.1478 253.777L-60.2242 368.267L30.3061 588.22L61.9656 610.449L245.076 549.111L127.373 229.135L97.92 250.979C98.8989 251.198 99.716 251.888 100.008 252.867C100.449 254.349 99.5194 255.934 97.9315 256.407C96.3435 256.88 94.6984 256.062 94.2571 254.579C94.1777 254.313 94.1427 254.043 94.1478 253.777ZM106.717 250.87C107.158 252.352 108.803 253.17 110.391 252.697C111.979 252.225 112.908 250.64 112.467 249.157C112.026 247.675 110.381 246.857 108.793 247.329C107.205 247.802 106.275 249.387 106.717 250.87Z" fill="#FFF8F3"/>
<g opacity="0.34">
<rect width="20.9629" height="19.6063" transform="matrix(-0.903536 0.428511 0.449053 0.893505 107.924 289.47)" fill="#E0E0E0"/>
<rect width="20.9629" height="19.6063" transform="matrix(-0.903536 0.428511 0.449053 0.893505 121.937 469.03)" fill="#E0E0E0"/>
<rect width="20.9629" height="19.6063" transform="matrix(-0.903536 0.428511 0.449053 0.893505 113.463 376.33)" fill="#E0E0E0"/>
<rect width="20.9629" height="19.6063" transform="matrix(-0.903536 0.428511 0.449053 0.893505 70.3181 529.667)" fill="#E0E0E0"/>
<rect width="20.9629" height="19.6063" transform="matrix(-0.903536 0.428511 0.449053 0.893505 14.0244 423.49)" fill="#E0E0E0"/>
<rect width="20.9629" height="19.6063" transform="matrix(-0.903536 0.428511 0.449053 0.893505 138.775 426.695)" fill="#E0E0E0"/>
<rect width="20.9629" height="19.6063" transform="matrix(-0.903536 0.428511 0.449053 0.893505 49.5382 406.647)" fill="#E0E0E0"/>
<rect width="20.9629" height="19.6063" transform="matrix(-0.903536 0.428511 0.449053 0.893505 77.1454 304.067)" fill="#E0E0E0"/>
<rect width="20.9629" height="19.6063" transform="matrix(-0.903536 0.428511 0.449053 0.893505 64.3423 354.431)" fill="#E0E0E0"/>
<rect width="20.9629" height="19.6063" transform="matrix(-0.903536 0.428511 0.449053 0.893505 103.464 513.947)" fill="#E0E0E0"/>
</g>
</g>
<defs>
<radialGradient id="paint0_radial" cx="0" cy="0" r="1" gradientUnits="userSpaceOnUse" gradientTransform="translate(960 178.5) rotate(90) scale(901.5)">
<stop offset="0.327647" stop-color="#FAE6E6"/>
<stop offset="1" stop-color="#F4E0E0"/>
</radialGradient>
<radialGradient id="paint1_radial" cx="0" cy="0" r="1" gradientUnits="userSpaceOnUse" gradientTransform="translate(960 806.759) rotate(66.8268) scale(439.122 2829.7)">
<stop stop-color="#E3A099"/>
<stop offset="1" stop-color="#D36D64"/>
</radialGradient>
<linearGradient id="paint2_linear" x1="967" y1="45.5" x2="966.64" y2="235.499" gradientUnits="userSpaceOnUse">
<stop stop-color="#BBFF00"/>
<stop offset="0.0001" stop-color="#F2C94C"/>
<stop offset="0.758816" stop-color="#F2C94C" stop-opacity="0"/>
</linearGradient>
<linearGradient id="paint3_linear" x1="901.25" y1="-5.4398" x2="1014.17" y2="-5.4398" gradientUnits="userSpaceOnUse">
<stop stop-color="#FE3936"/>
<stop offset="1" stop-color="#FE3C38" stop-opacity="0"/>
</linearGradient>
<clipPath id="clip0">
<rect width="1920" height="1080" fill="white"/>
</clipPath>
</defs>
</svg>
