<svg width="180" height="80" viewBox="0 0 180 80" fill="none" xmlns="http://www.w3.org/2000/svg">
<path d="M0 10C0 4.47715 4.47715 0 10 0H170C175.523 0 180 4.47715 180 10V70C180 75.5229 175.523 80 170 80H10C4.47716 80 0 75.5229 0 70V10Z" fill="#E0E0E0"/>
<path d="M0 10C0 4.47715 4.47715 0 10 0H170C175.523 0 180 4.47715 180 10V68C180 73.5229 175.523 78 170 78H10C4.47716 78 0 73.5229 0 68V10Z" fill="white"/>
<path d="M62.0953 54.8438C62.0953 56.2292 61.8089 57.2943 61.236 58.0391C60.663 58.7839 59.8558 59.1562 58.8141 59.1562C57.9547 59.1562 57.262 58.8151 56.736 58.1328L56.6266 59H54.2672V47H56.9V51.2266C57.3896 50.6693 58.0224 50.3906 58.7985 50.3906C59.8505 50.3906 60.663 50.7682 61.236 51.5234C61.8089 52.2786 62.0953 53.3411 62.0953 54.7109V54.8438ZM59.4547 54.6797C59.4547 53.8672 59.3453 53.2891 59.1266 52.9453C58.913 52.5964 58.5823 52.4219 58.1344 52.4219C57.5406 52.4219 57.1292 52.6484 56.9 53.1016V56.4609C57.124 56.9089 57.5406 57.1328 58.15 57.1328C58.7698 57.1328 59.163 56.8307 59.3297 56.2266C59.413 55.9297 59.4547 55.4141 59.4547 54.6797Z" fill="black"/>
<path d="M68.9531 59.1562C67.6563 59.1562 66.6068 58.7708 65.8047 58C65.0026 57.224 64.6016 56.2161 64.6016 54.9766V54.7578C64.6016 53.8932 64.7604 53.1302 65.0781 52.4688C65.4011 51.8073 65.8698 51.2969 66.4844 50.9375C67.099 50.5729 67.8281 50.3906 68.6719 50.3906C69.8594 50.3906 70.7969 50.7604 71.4844 51.5C72.1719 52.2344 72.5156 53.2604 72.5156 54.5781V55.6016H67.2813C67.375 56.0755 67.5808 56.4479 67.8985 56.7188C68.2162 56.9896 68.6276 57.125 69.1328 57.125C69.9662 57.125 70.6172 56.8333 71.086 56.25L72.2891 57.6719C71.961 58.125 71.4948 58.487 70.8906 58.7578C70.2917 59.0234 69.6459 59.1562 68.9531 59.1562ZM68.6563 52.4219C67.8854 52.4219 67.4271 52.9323 67.2813 53.9531H69.9375V53.75C69.9479 53.3281 69.8412 53.0026 69.6172 52.7734C69.3933 52.5391 69.0729 52.4219 68.6563 52.4219Z" fill="black"/>
<path d="M78.2485 48.4453V50.5469H79.6391V52.375H78.2485V56.2422C78.2485 56.5599 78.3058 56.7812 78.4203 56.9062C78.5349 57.0312 78.7615 57.0938 79.1 57.0938C79.3604 57.0938 79.5792 57.0781 79.7563 57.0469V58.9297C79.2823 59.0807 78.7875 59.1562 78.2719 59.1562C77.3657 59.1562 76.6964 58.9427 76.2641 58.5156C75.8318 58.0885 75.6157 57.4401 75.6157 56.5703V52.375H74.5375V50.5469H75.6157V48.4453H78.2485Z" fill="black"/>
<path d="M87.0438 59C86.95 58.8281 86.8667 58.5755 86.7938 58.2422C86.3094 58.8516 85.6323 59.1562 84.7625 59.1562C83.9656 59.1562 83.2886 58.9167 82.7313 58.4375C82.174 57.9531 81.8953 57.3464 81.8953 56.6172C81.8953 55.7005 82.2339 55.0078 82.911 54.5391C83.588 54.0703 84.5724 53.8359 85.8641 53.8359H86.6766V53.3906C86.6766 52.6146 86.3406 52.2266 85.6688 52.2266C85.0438 52.2266 84.7313 52.5339 84.7313 53.1484H82.0985C82.0985 52.3307 82.4448 51.6667 83.1375 51.1562C83.8354 50.6458 84.7235 50.3906 85.8016 50.3906C86.8797 50.3906 87.7313 50.6536 88.3563 51.1797C88.9813 51.7057 89.3016 52.4271 89.3172 53.3438V57.0859C89.3276 57.862 89.4474 58.4557 89.6766 58.8672V59H87.0438ZM85.3953 57.2812C85.7235 57.2812 85.9943 57.2109 86.2078 57.0703C86.4266 56.9297 86.5828 56.7708 86.6766 56.5938V55.2422H85.911C84.9943 55.2422 84.536 55.6536 84.536 56.4766C84.536 56.7161 84.6167 56.9115 84.7781 57.0625C84.9396 57.2083 85.1453 57.2812 85.3953 57.2812Z" fill="black"/>
<path d="M103.08 52.9297L102.213 52.8672C101.384 52.8672 100.853 53.1276 100.619 53.6484V59H97.986V50.5469H100.455L100.541 51.6328C100.983 50.8047 101.601 50.3906 102.392 50.3906C102.673 50.3906 102.918 50.4219 103.127 50.4844L103.08 52.9297Z" fill="black"/>
<path d="M109.563 59.1562C108.266 59.1562 107.216 58.7708 106.414 58C105.612 57.224 105.211 56.2161 105.211 54.9766V54.7578C105.211 53.8932 105.37 53.1302 105.688 52.4688C106.01 51.8073 106.479 51.2969 107.094 50.9375C107.708 50.5729 108.438 50.3906 109.281 50.3906C110.469 50.3906 111.406 50.7604 112.094 51.5C112.781 52.2344 113.125 53.2604 113.125 54.5781V55.6016H107.891C107.984 56.0755 108.19 56.4479 108.508 56.7188C108.826 56.9896 109.237 57.125 109.742 57.125C110.576 57.125 111.227 56.8333 111.695 56.25L112.898 57.6719C112.57 58.125 112.104 58.487 111.5 58.7578C110.901 59.0234 110.255 59.1562 109.563 59.1562ZM109.266 52.4219C108.495 52.4219 108.036 52.9323 107.891 53.9531H110.547V53.75C110.557 53.3281 110.451 53.0026 110.227 52.7734C110.003 52.5391 109.682 52.4219 109.266 52.4219Z" fill="black"/>
<path d="M118.569 59H115.928V47H118.569V59Z" fill="black"/>
<path d="M125.888 59.1562C124.591 59.1562 123.541 58.7708 122.739 58C121.937 57.224 121.536 56.2161 121.536 54.9766V54.7578C121.536 53.8932 121.695 53.1302 122.013 52.4688C122.335 51.8073 122.804 51.2969 123.419 50.9375C124.033 50.5729 124.763 50.3906 125.606 50.3906C126.794 50.3906 127.731 50.7604 128.419 51.5C129.106 52.2344 129.45 53.2604 129.45 54.5781V55.6016H124.216C124.309 56.0755 124.515 56.4479 124.833 56.7188C125.151 56.9896 125.562 57.125 126.067 57.125C126.901 57.125 127.552 56.8333 128.02 56.25L129.223 57.6719C128.895 58.125 128.429 58.487 127.825 58.7578C127.226 59.0234 126.58 59.1562 125.888 59.1562ZM125.591 52.4219C124.82 52.4219 124.361 52.9323 124.216 53.9531H126.872V53.75C126.882 53.3281 126.776 53.0026 126.552 52.7734C126.328 52.5391 126.007 52.4219 125.591 52.4219Z" fill="black"/>
<path d="M136.878 59C136.784 58.8281 136.701 58.5755 136.628 58.2422C136.144 58.8516 135.467 59.1562 134.597 59.1562C133.8 59.1562 133.123 58.9167 132.566 58.4375C132.008 57.9531 131.73 57.3464 131.73 56.6172C131.73 55.7005 132.068 55.0078 132.745 54.5391C133.422 54.0703 134.407 53.8359 135.698 53.8359H136.511V53.3906C136.511 52.6146 136.175 52.2266 135.503 52.2266C134.878 52.2266 134.566 52.5339 134.566 53.1484H131.933C131.933 52.3307 132.279 51.6667 132.972 51.1562C133.67 50.6458 134.558 50.3906 135.636 50.3906C136.714 50.3906 137.566 50.6536 138.191 51.1797C138.816 51.7057 139.136 52.4271 139.152 53.3438V57.0859C139.162 57.862 139.282 58.4557 139.511 58.8672V59H136.878ZM135.23 57.2812C135.558 57.2812 135.829 57.2109 136.042 57.0703C136.261 56.9297 136.417 56.7708 136.511 56.5938V55.2422H135.745C134.829 55.2422 134.37 55.6536 134.37 56.4766C134.37 56.7161 134.451 56.9115 134.613 57.0625C134.774 57.2083 134.98 57.2812 135.23 57.2812Z" fill="black"/>
<path d="M146.642 56.625C146.642 56.401 146.525 56.2214 146.291 56.0859C146.056 55.9505 145.611 55.8099 144.955 55.6641C144.298 55.5182 143.757 55.3281 143.33 55.0938C142.903 54.8542 142.577 54.5651 142.353 54.2266C142.129 53.888 142.017 53.5 142.017 53.0625C142.017 52.2865 142.338 51.6484 142.978 51.1484C143.619 50.6432 144.457 50.3906 145.494 50.3906C146.608 50.3906 147.504 50.6432 148.181 51.1484C148.858 51.6536 149.197 52.3177 149.197 53.1406H146.556C146.556 52.4635 146.2 52.125 145.486 52.125C145.21 52.125 144.978 52.2031 144.791 52.3594C144.603 52.5104 144.509 52.7005 144.509 52.9297C144.509 53.1641 144.624 53.3542 144.853 53.5C145.082 53.6458 145.447 53.7656 145.947 53.8594C146.452 53.9531 146.895 54.0651 147.275 54.1953C148.546 54.6328 149.181 55.4167 149.181 56.5469C149.181 57.3177 148.838 57.9453 148.15 58.4297C147.468 58.9141 146.582 59.1562 145.494 59.1562C144.77 59.1562 144.124 59.026 143.556 58.7656C142.989 58.5052 142.546 58.151 142.228 57.7031C141.91 57.2552 141.752 56.7839 141.752 56.2891H144.213C144.223 56.6797 144.353 56.9661 144.603 57.1484C144.853 57.3255 145.173 57.4141 145.564 57.4141C145.923 57.4141 146.192 57.3411 146.369 57.1953C146.551 57.0495 146.642 56.8594 146.642 56.625Z" fill="black"/>
<path d="M156.109 59.1562C154.813 59.1562 153.763 58.7708 152.961 58C152.159 57.224 151.758 56.2161 151.758 54.9766V54.7578C151.758 53.8932 151.917 53.1302 152.234 52.4688C152.557 51.8073 153.026 51.2969 153.641 50.9375C154.255 50.5729 154.984 50.3906 155.828 50.3906C157.016 50.3906 157.953 50.7604 158.641 51.5C159.328 52.2344 159.672 53.2604 159.672 54.5781V55.6016H154.438C154.531 56.0755 154.737 56.4479 155.055 56.7188C155.372 56.9896 155.784 57.125 156.289 57.125C157.122 57.125 157.773 56.8333 158.242 56.25L159.445 57.6719C159.117 58.125 158.651 58.487 158.047 58.7578C157.448 59.0234 156.802 59.1562 156.109 59.1562ZM155.813 52.4219C155.042 52.4219 154.583 52.9323 154.438 53.9531H157.094V53.75C157.104 53.3281 156.997 53.0026 156.773 52.7734C156.549 52.5391 156.229 52.4219 155.813 52.4219Z" fill="black"/>
</svg>
