<svg width="180" height="80" viewBox="0 0 180 80" fill="none" xmlns="http://www.w3.org/2000/svg">
<rect width="180" height="80" rx="10" fill="#9B1D21"/>
<rect width="180" height="78" rx="10" fill="#F93838"/>
<path d="M99.7844 57.125C100.154 57.125 100.441 57.026 100.644 56.8281C100.847 56.625 100.946 56.3438 100.941 55.9844H103.409C103.409 56.9115 103.076 57.6719 102.409 58.2656C101.748 58.8594 100.894 59.1562 99.8469 59.1562C98.6177 59.1562 97.649 58.7708 96.9406 58C96.2323 57.2292 95.8781 56.1615 95.8781 54.7969V54.6875C95.8781 53.8333 96.0344 53.0807 96.3469 52.4297C96.6646 51.7734 97.1203 51.2708 97.7141 50.9219C98.3078 50.5677 99.0109 50.3906 99.8234 50.3906C100.922 50.3906 101.795 50.6953 102.441 51.3047C103.086 51.9141 103.409 52.7396 103.409 53.7812H100.941C100.941 53.3438 100.834 53.0078 100.62 52.7734C100.407 52.5391 100.12 52.4219 99.7609 52.4219C99.0786 52.4219 98.6802 52.8568 98.5656 53.7266C98.5292 54.0026 98.5109 54.3828 98.5109 54.8672C98.5109 55.7161 98.6125 56.3047 98.8156 56.6328C99.0188 56.9609 99.3417 57.125 99.7844 57.125ZM105.791 54.6953C105.791 53.8516 105.955 53.1016 106.283 52.4453C106.611 51.7839 107.082 51.276 107.697 50.9219C108.311 50.5677 109.033 50.3906 109.861 50.3906C111.127 50.3906 112.124 50.7839 112.853 51.5703C113.582 52.3516 113.947 53.4167 113.947 54.7656V54.8594C113.947 56.1771 113.58 57.224 112.845 58C112.116 58.7708 111.127 59.1562 109.877 59.1562C108.673 59.1562 107.707 58.7969 106.978 58.0781C106.249 57.3542 105.856 56.375 105.798 55.1406L105.791 54.6953ZM108.423 54.8594C108.423 55.6406 108.546 56.2135 108.791 56.5781C109.035 56.9427 109.397 57.125 109.877 57.125C110.814 57.125 111.293 56.4036 111.314 54.9609V54.6953C111.314 53.1797 110.83 52.4219 109.861 52.4219C108.981 52.4219 108.504 53.0755 108.431 54.3828L108.423 54.8594ZM116.375 54.7109C116.375 53.3724 116.664 52.3177 117.242 51.5469C117.82 50.776 118.628 50.3906 119.664 50.3906C120.419 50.3906 121.055 50.6875 121.57 51.2812V47H124.211V59H121.844L121.711 58.0938C121.169 58.8021 120.482 59.1562 119.648 59.1562C118.643 59.1562 117.846 58.7708 117.258 58C116.669 57.2292 116.375 56.1328 116.375 54.7109ZM119.008 54.875C119.008 56.375 119.445 57.125 120.32 57.125C120.904 57.125 121.32 56.8802 121.57 56.3906V53.1719C121.331 52.6719 120.919 52.4219 120.336 52.4219C119.523 52.4219 119.083 53.0781 119.016 54.3906L119.008 54.875ZM131.397 59.1562C130.1 59.1562 129.051 58.7708 128.248 58C127.446 57.224 127.045 56.2161 127.045 54.9766V54.7578C127.045 53.8932 127.204 53.1302 127.522 52.4688C127.845 51.8073 128.314 51.2969 128.928 50.9375C129.543 50.5729 130.272 50.3906 131.116 50.3906C132.303 50.3906 133.241 50.7604 133.928 51.5C134.616 52.2344 134.959 53.2604 134.959 54.5781V55.6016H129.725C129.819 56.0755 130.024 56.4479 130.342 56.7188C130.66 56.9896 131.071 57.125 131.577 57.125C132.41 57.125 133.061 56.8333 133.53 56.25L134.733 57.6719C134.405 58.125 133.939 58.487 133.334 58.7578C132.735 59.0234 132.09 59.1562 131.397 59.1562ZM131.1 52.4219C130.329 52.4219 129.871 52.9323 129.725 53.9531H132.381V53.75C132.392 53.3281 132.285 53.0026 132.061 52.7734C131.837 52.5391 131.517 52.4219 131.1 52.4219ZM145.988 59H143.347V50.5469H145.988V59ZM143.191 48.3672C143.191 47.9922 143.326 47.6849 143.597 47.4453C143.868 47.2057 144.219 47.0859 144.652 47.0859C145.084 47.0859 145.435 47.2057 145.706 47.4453C145.977 47.6849 146.113 47.9922 146.113 48.3672C146.113 48.7422 145.977 49.0495 145.706 49.2891C145.435 49.5286 145.084 49.6484 144.652 49.6484C144.219 49.6484 143.868 49.5286 143.597 49.2891C143.326 49.0495 143.191 48.7422 143.191 48.3672ZM152.283 48.4453V50.5469H153.673V52.375H152.283V56.2422C152.283 56.5599 152.34 56.7812 152.455 56.9062C152.569 57.0312 152.796 57.0938 153.134 57.0938C153.395 57.0938 153.614 57.0781 153.791 57.0469V58.9297C153.317 59.0807 152.822 59.1562 152.306 59.1562C151.4 59.1562 150.731 58.9427 150.298 58.5156C149.866 58.0885 149.65 57.4401 149.65 56.5703V52.375H148.572V50.5469H149.65V48.4453H152.283ZM158.93 55.3984H156.797L156.461 47.625H159.266L158.93 55.3984ZM156.383 57.8203C156.383 57.4349 156.521 57.1198 156.797 56.875C157.078 56.625 157.427 56.5 157.844 56.5C158.26 56.5 158.607 56.625 158.883 56.875C159.164 57.1198 159.305 57.4349 159.305 57.8203C159.305 58.2057 159.164 58.5234 158.883 58.7734C158.607 59.0182 158.26 59.1406 157.844 59.1406C157.427 59.1406 157.078 59.0182 156.797 58.7734C156.521 58.5234 156.383 58.2057 156.383 57.8203Z" fill="white"/>
</svg>
