<svg width="180" height="80" viewBox="0 0 180 80" fill="none" xmlns="http://www.w3.org/2000/svg">
<path d="M0 10C0 4.47715 4.47715 0 10 0H170C175.523 0 180 4.47715 180 10V70C180 75.5229 175.523 80 170 80H10C4.47716 80 0 75.5229 0 70V10Z" fill="#E0E0E0"/>
<path d="M0 10C0 4.47715 4.47715 0 10 0H170C175.523 0 180 4.47715 180 10V68C180 73.5229 175.523 78 170 78H10C4.47716 78 0 73.5229 0 68V10Z" fill="white"/>
<path d="M78.2078 54.7109C78.2078 53.8568 78.3484 53.1016 78.6296 52.4453C78.9109 51.7891 79.3145 51.2839 79.8406 50.9297C80.3666 50.5703 80.9786 50.3906 81.6765 50.3906C82.5567 50.3906 83.2442 50.6875 83.739 51.2812L83.8328 50.5469H86.2234V58.6797C86.2234 59.4245 86.0489 60.0703 85.7 60.6172C85.3562 61.1693 84.8562 61.5911 84.2 61.8828C83.5437 62.1797 82.7833 62.3281 81.9187 62.3281C81.2989 62.3281 80.6973 62.2109 80.114 61.9766C79.5359 61.7422 79.0932 61.4375 78.7859 61.0625L79.8875 59.5156C80.377 60.0938 81.0229 60.3828 81.825 60.3828C82.9916 60.3828 83.575 59.7839 83.575 58.5859V58.3203C83.0697 58.8776 82.4317 59.1562 81.6609 59.1562C80.6296 59.1562 79.7963 58.763 79.1609 57.9766C78.5255 57.1849 78.2078 56.1276 78.2078 54.8047V54.7109ZM80.8484 54.875C80.8484 55.5677 80.9786 56.1172 81.239 56.5234C81.4994 56.9245 81.864 57.125 82.3328 57.125C82.9005 57.125 83.3145 56.9349 83.575 56.5547V53C83.3197 52.6146 82.9109 52.4219 82.3484 52.4219C81.8796 52.4219 81.5125 52.6328 81.2468 53.0547C80.9812 53.4714 80.8484 54.0781 80.8484 54.875Z" fill="black"/>
<path d="M92.0968 59H89.4562V50.5469H92.0968V59ZM89.3 48.3672C89.3 47.9922 89.4354 47.6849 89.7062 47.4453C89.977 47.2057 90.3286 47.0859 90.7609 47.0859C91.1932 47.0859 91.5447 47.2057 91.8156 47.4453C92.0864 47.6849 92.2218 47.9922 92.2218 48.3672C92.2218 48.7422 92.0864 49.0495 91.8156 49.2891C91.5447 49.5286 91.1932 49.6484 90.7609 49.6484C90.3286 49.6484 89.977 49.5286 89.7062 49.2891C89.4354 49.0495 89.3 48.7422 89.3 48.3672Z" fill="black"/>
<path d="M98.3921 48.4453V50.5469H99.7828V52.375H98.3921V56.2422C98.3921 56.5599 98.4494 56.7812 98.564 56.9062C98.6786 57.0312 98.9052 57.0938 99.2437 57.0938C99.5041 57.0938 99.7229 57.0781 99.9 57.0469V58.9297C99.426 59.0807 98.9312 59.1562 98.4156 59.1562C97.5093 59.1562 96.8401 58.9427 96.4078 58.5156C95.9755 58.0885 95.7593 57.4401 95.7593 56.5703V52.375H94.6812V50.5469H95.7593V48.4453H98.3921Z" fill="black"/>
<path d="M110.498 50.5469L110.584 51.5391C111.183 50.7734 111.988 50.3906 112.998 50.3906C114.066 50.3906 114.787 50.8151 115.162 51.6641C115.735 50.8151 116.563 50.3906 117.647 50.3906C119.36 50.3906 120.241 51.4271 120.287 53.5V59H117.647V53.6641C117.647 53.2318 117.574 52.9167 117.428 52.7188C117.282 52.5208 117.017 52.4219 116.631 52.4219C116.11 52.4219 115.722 52.6536 115.467 53.1172L115.475 53.2266V59H112.834V53.6797C112.834 53.237 112.764 52.9167 112.623 52.7188C112.483 52.5208 112.215 52.4219 111.819 52.4219C111.313 52.4219 110.928 52.6536 110.662 53.1172V59H108.03V50.5469H110.498Z" fill="black"/>
<path d="M127.481 59.1562C126.184 59.1562 125.135 58.7708 124.333 58C123.531 57.224 123.13 56.2161 123.13 54.9766V54.7578C123.13 53.8932 123.288 53.1302 123.606 52.4688C123.929 51.8073 124.398 51.2969 125.012 50.9375C125.627 50.5729 126.356 50.3906 127.2 50.3906C128.387 50.3906 129.325 50.7604 130.012 51.5C130.7 52.2344 131.044 53.2604 131.044 54.5781V55.6016H125.809C125.903 56.0755 126.109 56.4479 126.427 56.7188C126.744 56.9896 127.156 57.125 127.661 57.125C128.494 57.125 129.145 56.8333 129.614 56.25L130.817 57.6719C130.489 58.125 130.023 58.487 129.419 58.7578C128.82 59.0234 128.174 59.1562 127.481 59.1562ZM127.184 52.4219C126.413 52.4219 125.955 52.9323 125.809 53.9531H128.466V53.75C128.476 53.3281 128.369 53.0026 128.145 52.7734C127.921 52.5391 127.601 52.4219 127.184 52.4219Z" fill="black"/>
<path d="M138.823 52.9297L137.956 52.8672C137.128 52.8672 136.597 53.1276 136.362 53.6484V59H133.73V50.5469H136.198L136.284 51.6328C136.727 50.8047 137.344 50.3906 138.136 50.3906C138.417 50.3906 138.662 50.4219 138.87 50.4844L138.823 52.9297Z" fill="black"/>
<path d="M140.908 54.7109C140.908 53.8568 141.048 53.1016 141.33 52.4453C141.611 51.7891 142.015 51.2839 142.541 50.9297C143.067 50.5703 143.679 50.3906 144.377 50.3906C145.257 50.3906 145.944 50.6875 146.439 51.2812L146.533 50.5469H148.923V58.6797C148.923 59.4245 148.749 60.0703 148.4 60.6172C148.056 61.1693 147.556 61.5911 146.9 61.8828C146.244 62.1797 145.483 62.3281 144.619 62.3281C143.999 62.3281 143.397 62.2109 142.814 61.9766C142.236 61.7422 141.793 61.4375 141.486 61.0625L142.587 59.5156C143.077 60.0938 143.723 60.3828 144.525 60.3828C145.692 60.3828 146.275 59.7839 146.275 58.5859V58.3203C145.77 58.8776 145.132 59.1562 144.361 59.1562C143.33 59.1562 142.496 58.763 141.861 57.9766C141.225 57.1849 140.908 56.1276 140.908 54.8047V54.7109ZM143.548 54.875C143.548 55.5677 143.679 56.1172 143.939 56.5234C144.199 56.9245 144.564 57.125 145.033 57.125C145.6 57.125 146.015 56.9349 146.275 56.5547V53C146.02 52.6146 145.611 52.4219 145.048 52.4219C144.58 52.4219 144.212 52.6328 143.947 53.0547C143.681 53.4714 143.548 54.0781 143.548 54.875Z" fill="black"/>
<path d="M156.109 59.1562C154.812 59.1562 153.763 58.7708 152.961 58C152.159 57.224 151.758 56.2161 151.758 54.9766V54.7578C151.758 53.8932 151.917 53.1302 152.234 52.4688C152.557 51.8073 153.026 51.2969 153.641 50.9375C154.255 50.5729 154.984 50.3906 155.828 50.3906C157.016 50.3906 157.953 50.7604 158.641 51.5C159.328 52.2344 159.672 53.2604 159.672 54.5781V55.6016H154.437C154.531 56.0755 154.737 56.4479 155.055 56.7188C155.372 56.9896 155.784 57.125 156.289 57.125C157.122 57.125 157.773 56.8333 158.242 56.25L159.445 57.6719C159.117 58.125 158.651 58.487 158.047 58.7578C157.448 59.0234 156.802 59.1562 156.109 59.1562ZM155.812 52.4219C155.042 52.4219 154.583 52.9323 154.437 53.9531H157.094V53.75C157.104 53.3281 156.997 53.0026 156.773 52.7734C156.549 52.5391 156.229 52.4219 155.812 52.4219Z" fill="black"/>
</svg>
