<svg width="180" height="80" viewBox="0 0 180 80" fill="none" xmlns="http://www.w3.org/2000/svg">
<path d="M0 10C0 4.47715 4.47715 0 10 0H170C175.523 0 180 4.47715 180 10V70C180 75.5229 175.523 80 170 80H10C4.47716 80 0 75.5229 0 70V10Z" fill="#E0E0E0"/>
<path d="M0 10C0 4.47715 4.47715 0 10 0H170C175.523 0 180 4.47715 180 10V68C180 73.5229 175.523 78 170 78H10C4.47716 78 0 73.5229 0 68V10Z" fill="white"/>
<path d="M90.8547 54.7109C90.8547 53.8568 90.9954 53.1016 91.2766 52.4453C91.5579 51.7891 91.9615 51.2839 92.4875 50.9297C93.0136 50.5703 93.6256 50.3906 94.3235 50.3906C95.2037 50.3906 95.8912 50.6875 96.386 51.2812L96.4797 50.5469H98.8704V58.6797C98.8704 59.4245 98.6959 60.0703 98.3469 60.6172C98.0032 61.1693 97.5032 61.5911 96.8469 61.8828C96.1907 62.1797 95.4303 62.3281 94.5657 62.3281C93.9459 62.3281 93.3443 62.2109 92.761 61.9766C92.1829 61.7422 91.7402 61.4375 91.4329 61.0625L92.5344 59.5156C93.024 60.0938 93.6698 60.3828 94.4719 60.3828C95.6386 60.3828 96.2219 59.7839 96.2219 58.5859V58.3203C95.7167 58.8776 95.0787 59.1562 94.3079 59.1562C93.2766 59.1562 92.4433 58.763 91.8079 57.9766C91.1724 57.1849 90.8547 56.1276 90.8547 54.8047V54.7109ZM93.4954 54.875C93.4954 55.5677 93.6256 56.1172 93.886 56.5234C94.1464 56.9245 94.511 57.125 94.9797 57.125C95.5474 57.125 95.9615 56.9349 96.2219 56.5547V53C95.9667 52.6146 95.5579 52.4219 94.9954 52.4219C94.5266 52.4219 94.1594 52.6328 93.8938 53.0547C93.6282 53.4714 93.4954 54.0781 93.4954 54.875Z" fill="black"/>
<path d="M104.744 59H102.103V50.5469H104.744V59ZM101.947 48.3672C101.947 47.9922 102.082 47.6849 102.353 47.4453C102.624 47.2057 102.976 47.0859 103.408 47.0859C103.84 47.0859 104.192 47.2057 104.463 47.4453C104.733 47.6849 104.869 47.9922 104.869 48.3672C104.869 48.7422 104.733 49.0495 104.463 49.2891C104.192 49.5286 103.84 49.6484 103.408 49.6484C102.976 49.6484 102.624 49.5286 102.353 49.2891C102.082 49.0495 101.947 48.7422 101.947 48.3672Z" fill="black"/>
<path d="M111.039 48.4453V50.5469H112.43V52.375H111.039V56.2422C111.039 56.5599 111.096 56.7812 111.211 56.9062C111.326 57.0312 111.552 57.0938 111.891 57.0938C112.151 57.0938 112.37 57.0781 112.547 57.0469V58.9297C112.073 59.0807 111.578 59.1562 111.063 59.1562C110.156 59.1562 109.487 58.9427 109.055 58.5156C108.622 58.0885 108.406 57.4401 108.406 56.5703V52.375H107.328V50.5469H108.406V48.4453H111.039Z" fill="black"/>
<path d="M128.505 54.8359C128.505 56.1484 128.208 57.1979 127.614 57.9844C127.026 58.7656 126.229 59.1562 125.223 59.1562C124.447 59.1562 123.809 58.8724 123.309 58.3047V62.25H120.677V50.5469H123.138L123.216 51.3281C123.721 50.7031 124.385 50.3906 125.208 50.3906C126.25 50.3906 127.059 50.776 127.638 51.5469C128.216 52.3125 128.505 53.3672 128.505 54.7109V54.8359ZM125.872 54.6719C125.872 53.1719 125.434 52.4219 124.559 52.4219C123.934 52.4219 123.518 52.6458 123.309 53.0938V56.4219C123.539 56.8906 123.96 57.125 124.575 57.125C125.414 57.125 125.846 56.401 125.872 54.9531V54.6719Z" fill="black"/>
<path d="M136.308 58.0859C135.751 58.7995 134.998 59.1562 134.05 59.1562C133.123 59.1562 132.42 58.888 131.941 58.3516C131.467 57.8099 131.23 57.0339 131.23 56.0234V50.5469H133.863V56.0391C133.863 56.763 134.214 57.125 134.917 57.125C135.521 57.125 135.951 56.9089 136.206 56.4766V50.5469H138.855V59H136.386L136.308 58.0859Z" fill="black"/>
<path d="M146.33 56.625C146.33 56.401 146.213 56.2214 145.978 56.0859C145.744 55.9505 145.298 55.8099 144.642 55.6641C143.986 55.5182 143.444 55.3281 143.017 55.0938C142.59 54.8542 142.265 54.5651 142.041 54.2266C141.817 53.888 141.705 53.5 141.705 53.0625C141.705 52.2865 142.025 51.6484 142.666 51.1484C143.306 50.6432 144.145 50.3906 145.181 50.3906C146.296 50.3906 147.192 50.6432 147.869 51.1484C148.546 51.6536 148.884 52.3177 148.884 53.1406H146.244C146.244 52.4635 145.887 52.125 145.173 52.125C144.897 52.125 144.666 52.2031 144.478 52.3594C144.291 52.5104 144.197 52.7005 144.197 52.9297C144.197 53.1641 144.312 53.3542 144.541 53.5C144.77 53.6458 145.134 53.7656 145.634 53.8594C146.14 53.9531 146.582 54.0651 146.963 54.1953C148.233 54.6328 148.869 55.4167 148.869 56.5469C148.869 57.3177 148.525 57.9453 147.838 58.4297C147.155 58.9141 146.27 59.1562 145.181 59.1562C144.457 59.1562 143.812 59.026 143.244 58.7656C142.676 58.5052 142.233 58.151 141.916 57.7031C141.598 57.2552 141.439 56.7839 141.439 56.2891H143.9C143.91 56.6797 144.041 56.9661 144.291 57.1484C144.541 57.3255 144.861 57.4141 145.252 57.4141C145.611 57.4141 145.879 57.3411 146.056 57.1953C146.239 57.0495 146.33 56.8594 146.33 56.625Z" fill="black"/>
<path d="M154.281 51.4531C154.844 50.7448 155.563 50.3906 156.438 50.3906C157.37 50.3906 158.073 50.6667 158.547 51.2188C159.021 51.7708 159.263 52.5859 159.273 53.6641V59H156.633V53.7266C156.633 53.2786 156.542 52.9505 156.359 52.7422C156.177 52.5286 155.867 52.4219 155.43 52.4219C154.888 52.4219 154.505 52.5938 154.281 52.9375V59H151.648V47H154.281V51.4531Z" fill="black"/>
</svg>
