<svg width="216" height="100" viewBox="0 0 216 100" fill="none" xmlns="http://www.w3.org/2000/svg">
<path fill-rule="evenodd" clip-rule="evenodd" d="M16.9719 13.6414C28.2382 4.52929 44.5045 -0.680955 65 0.072056L64.3784 15.1556C47.0847 14.5202 35.0051 18.9318 27.3717 25.1057C19.7323 31.2843 15.988 39.649 15.9864 48.1272C15.9833 64.5919 30.638 83.8627 64.9483 84.9132L64.4302 100C23.1295 98.7357 -0.00498268 74.1967 8.04964e-07 48.1245C0.00244538 35.3343 5.71157 22.7487 16.9719 13.6414Z" fill="#B53326"/>
<path fill-rule="evenodd" clip-rule="evenodd" d="M199.028 13.6414C187.762 4.52929 171.496 -0.680955 151 0.072056L151.622 15.1556C168.915 14.5202 180.995 18.9318 188.628 25.1057C196.268 31.2843 200.012 39.649 200.014 48.1272C200.017 64.5919 185.362 83.8627 151.052 84.9132L151.57 100C192.87 98.7357 216.005 74.1967 216 48.1245C215.998 35.3343 210.288 22.7487 199.028 13.6414Z" fill="#B53326"/>
</svg>
