<svg width="100" height="120" viewBox="0 0 100 120" fill="none" xmlns="http://www.w3.org/2000/svg">
<circle cx="50" cy="70" r="50" fill="#EB864E"/>
<path d="M76.4442 37.5111C86.7689 37.0725 95 28.8473 95 18.7648C95 8.40127 86.3037 0 75.5763 0C68.9632 0 63.1219 3.19279 59.6141 8.06981L17.9824 17.7306C8.88894 19.8408 3.28795 28.6731 5.47222 37.458C7.6565 46.243 16.7989 51.654 25.8923 49.5438L73.3941 38.5208C74.4612 38.2732 75.4803 37.933 76.4442 37.5111Z" fill="black"/>
<path d="M39 102L41.141 99.6774C46.8897 93.4409 54.1103 93.4409 59.859 99.6774L62 102L59.859 103.991C54.1103 109.336 46.8897 109.336 41.141 103.991L39 102Z" fill="#B53326"/>
<ellipse cx="30.5" cy="68.5" rx="12.5" ry="2.5" fill="black"/>
<ellipse cx="69.5" cy="68.5" rx="12.5" ry="2.5" fill="black"/>
</svg>
