<svg width="100" height="120" viewBox="0 0 100 120" fill="none" xmlns="http://www.w3.org/2000/svg">
<g clip-path="url(#clip0)">
<path d="M5 44.3694C5 42.4733 6.47006 40.902 8.36189 40.7759L90.8922 35.2739C93.1153 35.1257 95 36.8889 95 39.1169V75C95 99.8528 74.8528 120 50 120C25.1472 120 5 99.8528 5 75V44.3694Z" fill="url(#paint0_radial)"/>
<path d="M45 100H55" stroke="#B53326" stroke-width="5" stroke-linecap="round" stroke-linejoin="round"/>
<path d="M39.3718 49.6648C26.7526 49.1628 26.7526 51.673 15.143 57.1956C6.9005 61.1164 0 54.8276 0 49.4138C0 44 4 31 25.5 29.5C47 28 55.7437 8.39288 80.3912 7C91.2208 7 100 15.4357 100 25.8417C100 35.9655 91.6904 49.2244 81.2674 49.6648C70.1625 49.6648 68.6482 47.6566 63.6005 46.6525C58.5529 45.6484 51.9909 50.1669 39.3718 49.6648Z" fill="url(#paint1_radial)"/>
<path d="M96.2536 68C91.4536 68 90.9203 75.3333 91.2536 79C90.7536 82.1667 90.6537 88.5 94.2537 88.5C98.7537 88.5 102.254 68 96.2536 68Z" fill="url(#paint2_radial)"/>
<path d="M3.74637 68C8.54637 68 9.0797 75.3333 8.74637 79C9.24635 82.1667 9.34632 88.5 5.74632 88.5C1.24632 88.5 -2.25363 68 3.74637 68Z" fill="url(#paint3_radial)"/>
</g>
<defs>
<radialGradient id="paint0_radial" cx="0" cy="0" r="1" gradientUnits="userSpaceOnUse" gradientTransform="translate(50 55.8643) rotate(85.1141) scale(95.1014 143.759)">
<stop stop-color="#EB864E"/>
<stop offset="1" stop-color="#DA753D"/>
</radialGradient>
<radialGradient id="paint1_radial" cx="0" cy="0" r="1" gradientUnits="userSpaceOnUse" gradientTransform="translate(50 19.5) rotate(81.1041) scale(58.2001 158.386)">
<stop stop-color="#110F52"/>
<stop offset="1"/>
</radialGradient>
<radialGradient id="paint2_radial" cx="0" cy="0" r="1" gradientUnits="userSpaceOnUse" gradientTransform="translate(95.2223 72.9836) rotate(88.1012) scale(22.937 13.5306)">
<stop stop-color="#EB864E"/>
<stop offset="1" stop-color="#DA753D"/>
</radialGradient>
<radialGradient id="paint3_radial" cx="0" cy="0" r="1" gradientUnits="userSpaceOnUse" gradientTransform="translate(4.77767 72.9836) rotate(91.8988) scale(22.937 13.5306)">
<stop stop-color="#EB864E"/>
<stop offset="1" stop-color="#DA753D"/>
</radialGradient>
<clipPath id="clip0">
<rect width="100" height="120" fill="white"/>
</clipPath>
</defs>
</svg>
