<svg width="104" height="198" viewBox="0 0 104 198" fill="none" xmlns="http://www.w3.org/2000/svg">
<rect width="24.3596" height="100" rx="12.1798" fill="#4C3D16"/>
<path d="M10.0729 70.1865C3.44445 71.3511 -0.981537 77.6496 0.187163 84.2546L15.3539 169.963C16.5226 176.568 22.8435 180.978 29.472 179.813C36.1005 178.649 40.5264 172.35 39.3577 165.745L24.1911 80.0371C23.0224 73.4321 16.7014 69.0219 10.0729 70.1865Z" fill="#261700"/>
<rect y="70" width="24.3596" height="30" rx="12.1798" fill="#3A2B04"/>
<rect x="2.03003" y="166.78" width="47.1609" height="31.2195" rx="15.6098" fill="#F93838"/>
<rect x="2.03003" y="191.171" width="47.1609" height="6.82927" rx="3.41463" fill="#B53326"/>
<rect x="11.2571" y="166.78" width="23.5805" height="17.561" rx="5" fill="#FF6060"/>
<rect x="11.2571" y="169.707" width="19.4795" height="2.92683" rx="1.46341" fill="white"/>
<rect x="9.20679" y="174.585" width="19.4795" height="2.92683" rx="1.46341" fill="white"/>
<rect x="7.15625" y="179.463" width="19.4795" height="2.92683" rx="1.46341" fill="white"/>
<rect width="24.3596" height="100" rx="12.1798" transform="matrix(-1 0 0 1 104 0)" fill="#4C3D16"/>
<path d="M93.9271 70.1865C100.556 71.3511 104.982 77.6496 103.813 84.2546L88.6461 169.963C87.4774 176.568 81.1565 180.978 74.528 179.813C67.8995 178.649 63.4736 172.35 64.6423 165.745L79.8089 80.0371C80.9776 73.4321 87.2986 69.0219 93.9271 70.1865Z" fill="#261700"/>
<rect width="24.3596" height="30" rx="12.1798" transform="matrix(-1 0 0 1 104 70)" fill="#3A2B04"/>
<rect width="47.1609" height="31.2195" rx="15.6098" transform="matrix(-1 0 0 1 101.97 166.78)" fill="#F93838"/>
<rect width="47.1609" height="6.82927" rx="3.41463" transform="matrix(-1 0 0 1 101.97 191.171)" fill="#B53326"/>
<rect width="23.5805" height="17.561" rx="5" transform="matrix(-1 0 0 1 92.7429 166.78)" fill="#FF6060"/>
<rect width="19.4795" height="2.92683" rx="1.46341" transform="matrix(-1 0 0 1 92.7427 169.707)" fill="white"/>
<rect width="19.4795" height="2.92683" rx="1.46341" transform="matrix(-1 0 0 1 94.7935 174.585)" fill="white"/>
<rect width="19.4795" height="2.92683" rx="1.46341" transform="matrix(-1 0 0 1 96.8438 179.463)" fill="white"/>
</svg>
