<svg width="80" height="90" viewBox="0 0 80 90" fill="none" xmlns="http://www.w3.org/2000/svg">
<g clip-path="url(#clip0)">
<rect width="77.1905" height="31.8848" transform="matrix(-0.305593 0.952162 -0.955073 -0.296371 80 16.5021)" fill="#F3ECE2"/>
<rect width="72.9022" height="27.5369" transform="matrix(-0.305593 0.952162 -0.955073 -0.296371 77.2686 17.8994)" fill="#AFAE8F"/>
<rect width="72.0445" height="26.6673" transform="matrix(-0.305593 0.952162 -0.955073 -0.296371 76.7222 18.1789)" fill="#A1A17D"/>
<rect width="71.3298" height="25.9427" transform="matrix(-0.305593 0.952162 -0.955073 -0.296371 76.2668 18.4118)" fill="#AFAE8F"/>
<rect width="68.4708" height="23.044" transform="matrix(-0.305593 0.952162 -0.955073 -0.296371 74.4458 19.3433)" fill="#F3ECE2"/>
<ellipse rx="10.5065" ry="10.6524" transform="matrix(-0.305593 0.952162 -0.955073 -0.296371 52.9795 48.5262)" fill="#A1A17D"/>
<ellipse rx="9.07703" ry="9.20312" transform="matrix(-0.305593 0.952162 -0.955073 -0.296371 52.9794 48.5262)" fill="#AFAE8F"/>
<ellipse rx="2.00124" ry="2.02903" transform="matrix(-0.305593 0.952162 -0.955073 -0.296371 45.7279 71.12)" fill="#A1A17D"/>
<ellipse rx="1.71534" ry="1.73917" transform="matrix(-0.305593 0.952162 -0.955073 -0.296371 45.7279 71.12)" fill="#AFAE8F"/>
<ellipse rx="2.00124" ry="2.02903" transform="matrix(-0.305593 0.952162 -0.955073 -0.296371 60.2308 25.9324)" fill="#A1A17D"/>
<ellipse rx="1.71534" ry="1.73917" transform="matrix(-0.305593 0.952162 -0.955073 -0.296371 60.2308 25.9324)" fill="#AFAE8F"/>
<rect width="6.93285" height="2.46383" transform="matrix(-0.305593 0.952162 -0.955073 -0.296371 71.1392 22.0587)" fill="#AFAE8F"/>
<rect width="61.3236" height="2.46383" transform="matrix(-0.305593 0.952162 -0.955073 -0.296371 53.5598 16.6037)" fill="#AFAE8F"/>
<rect width="30.1615" height="3.9856" transform="matrix(-0.305593 0.952162 -0.955073 -0.296371 50.2517 31.8904)" fill="#A1A17D"/>
<rect width="6.93285" height="2.46383" transform="matrix(-0.305593 0.952162 -0.955073 -0.296371 68.4963 30.2932)" fill="#AFAE8F"/>
<rect width="6.93285" height="2.46383" transform="matrix(-0.305593 0.952162 -0.955073 -0.296371 57.1604 65.613)" fill="#AFAE8F"/>
<rect width="6.93285" height="2.46383" transform="matrix(-0.305593 0.952162 -0.955073 -0.296371 54.5176 73.8475)" fill="#AFAE8F"/>
<rect x="52.9795" width="77.071" height="31.9328" transform="rotate(90 52.9795 0)" fill="#F3ECE2"/>
<rect x="50.8022" y="2.14085" width="72.7893" height="27.5783" transform="rotate(90 50.8022 2.14085)" fill="#AFAE8F"/>
<rect x="50.3667" y="2.56903" width="71.9329" height="26.7074" transform="rotate(90 50.3667 2.56903)" fill="#A1A17D"/>
<rect x="50.0039" y="2.92586" width="71.2193" height="25.9817" transform="rotate(90 50.0039 2.92586)" fill="#AFAE8F"/>
<rect x="48.5525" y="4.35309" width="68.3648" height="23.0787" transform="rotate(90 48.5525 4.35309)" fill="#F3ECE2"/>
<ellipse cx="37.0132" cy="38.5355" rx="10.4902" ry="10.6685" transform="rotate(90 37.0132 38.5355)" fill="#A1A17D"/>
<ellipse cx="37.013" cy="38.5355" rx="9.06298" ry="9.21696" transform="rotate(90 37.013 38.5355)" fill="#AFAE8F"/>
<ellipse cx="37.0131" cy="62.2277" rx="1.99814" ry="2.03209" transform="rotate(90 37.0131 62.2277)" fill="#A1A17D"/>
<ellipse cx="37.0131" cy="62.2277" rx="1.71269" ry="1.74179" transform="rotate(90 37.0131 62.2277)" fill="#AFAE8F"/>
<ellipse cx="37.0131" cy="14.8433" rx="1.99814" ry="2.03209" transform="rotate(90 37.0131 14.8433)" fill="#A1A17D"/>
<ellipse cx="37.0131" cy="14.8433" rx="1.71269" ry="1.74179" transform="rotate(90 37.0131 14.8433)" fill="#AFAE8F"/>
<rect x="46.23" y="7.92119" width="6.92212" height="2.46753" transform="rotate(90 46.23 7.92119)" fill="#AFAE8F"/>
<rect x="27.7961" y="7.92119" width="61.2286" height="2.46753" transform="rotate(90 27.7961 7.92119)" fill="#AFAE8F"/>
<rect x="29.3203" y="23.4781" width="30.1148" height="3.9916" transform="rotate(90 29.3203 23.4781)" fill="#A1A17D"/>
<rect x="46.23" y="16.556" width="6.92212" height="2.46753" transform="rotate(90 46.23 16.556)" fill="#AFAE8F"/>
<rect x="46.23" y="53.5929" width="6.92212" height="2.46753" transform="rotate(90 46.23 53.5929)" fill="#AFAE8F"/>
<rect x="46.23" y="62.2277" width="6.92212" height="2.46753" transform="rotate(90 46.23 62.2277)" fill="#AFAE8F"/>
<rect width="77.1594" height="31.8973" transform="matrix(0.262915 0.964819 -0.967 0.254778 30.8447 7.24039)" fill="#F3ECE2"/>
<rect width="72.8728" height="27.5477" transform="matrix(0.262915 0.964819 -0.967 0.254778 29.3052 9.8624)" fill="#AFAE8F"/>
<rect width="72.0155" height="26.6778" transform="matrix(0.262915 0.964819 -0.967 0.254778 28.9973 10.3868)" fill="#A1A17D"/>
<rect width="71.301" height="25.9528" transform="matrix(0.262915 0.964819 -0.967 0.254778 28.7407 10.8238)" fill="#AFAE8F"/>
<rect width="68.4433" height="23.0531" transform="matrix(0.262915 0.964819 -0.967 0.254778 27.7144 12.5718)" fill="#F3ECE2"/>
<ellipse rx="10.5023" ry="10.6566" transform="matrix(0.262915 0.964819 -0.967 0.254778 25.5656 48.5262)" fill="#A1A17D"/>
<ellipse rx="9.07338" ry="9.20673" transform="matrix(0.262915 0.964819 -0.967 0.254778 25.5656 48.5262)" fill="#AFAE8F"/>
<ellipse rx="2.00043" ry="2.02983" transform="matrix(0.262915 0.964819 -0.967 0.254778 31.8019 71.4111)" fill="#A1A17D"/>
<ellipse rx="1.71465" ry="1.73985" transform="matrix(0.262915 0.964819 -0.967 0.254778 31.8018 71.4111)" fill="#AFAE8F"/>
<ellipse rx="2.00043" ry="2.02983" transform="matrix(0.262915 0.964819 -0.967 0.254778 19.3295 25.6413)" fill="#A1A17D"/>
<ellipse rx="1.71465" ry="1.73985" transform="matrix(0.262915 0.964819 -0.967 0.254778 19.3294 25.6413)" fill="#AFAE8F"/>
<rect width="6.93006" height="2.46479" transform="matrix(0.262915 0.964819 -0.967 0.254778 26.4102 16.6094)" fill="#AFAE8F"/>
<rect width="61.2989" height="2.46479" transform="matrix(0.262915 0.964819 -0.967 0.254778 8.60449 21.3007)" fill="#AFAE8F"/>
<rect width="30.1493" height="3.98717" transform="matrix(0.262915 0.964819 -0.967 0.254778 14.1714 35.9397)" fill="#A1A17D"/>
<rect width="6.93006" height="2.46479" transform="matrix(0.262915 0.964819 -0.967 0.254778 28.6831 24.9499)" fill="#AFAE8F"/>
<rect width="6.93006" height="2.46479" transform="matrix(0.262915 0.964819 -0.967 0.254778 38.4319 60.7248)" fill="#AFAE8F"/>
<rect width="6.93006" height="2.46479" transform="matrix(0.262915 0.964819 -0.967 0.254778 40.7046 69.0654)" fill="#AFAE8F"/>
</g>
<defs>
<clipPath id="clip0">
<rect width="80" height="90" fill="white"/>
</clipPath>
</defs>
</svg>
